<svg xmlns="http://www.w3.org/2000/svg" width="180.02" height="130.45"><path d="M25.94 10.15v35.54H14.58V10.15H0V0h40.45v10.15zm31 8.06h20.19v9.68H56.91v7.92h23.18v9.88H45.55V0h34.54v9.88H56.91zm41 14.25v13.23h-11.4V0h20c11.29 0 18.88 6.18 18.88 16.06a15.38 15.38 0 0 1-8.73 14.18l11.76 15.45h-13.69L105 32.46zm8.39-10.22c4.37 0 7.86-2.42 7.86-6.18s-3.49-6-7.86-6H97.9v12.18zM97.9 84.31v13.24H86.54v-45.7h20c11.29 0 18.89 6.19 18.89 16.06a15.36 15.36 0 0 1-8.74 14.18l11.76 15.46h-13.69L105 84.31zm8.39-10.22c4.37 0 7.87-2.41 7.87-6.18s-3.5-6-7.87-6H97.9v12.18zm39.24 15.59l-3 7.87h-12.1l19.42-46h10.82l19.35 46H168l-3.09-7.87zm9.68-24.86L149.29 80h11.83z" fill="#00a65c"/><path d="M0 118.76h3.1c1.15 0 2.86.33 2.86 2.27a2 2 0 0 1-1.76 2 2.07 2.07 0 0 1 2 2c0 2.24-2 2.57-3.13 2.57H0zm1.78 3.58h.72c.75 0 1.68-.16 1.68-1.08s-.9-1.1-1.71-1.1h-.69zm0 3.89h.84c.83 0 1.83-.2 1.83-1.23s-.94-1.33-1.83-1.33h-.84zM10.93 120.93a3.27 3.27 0 0 1 3.43 3.47 3.23 3.23 0 0 1-3.43 3.38 3.23 3.23 0 0 1-3.42-3.38 3.28 3.28 0 0 1 3.42-3.47zm0 5.53c1.31 0 1.65-1.17 1.65-2.26a1.73 1.73 0 0 0-1.65-2 1.75 1.75 0 0 0-1.64 2c0 1.08.34 2.26 1.64 2.26zM20.38 126.89a2.42 2.42 0 0 1-2 .89c-2 0-2.74-1.65-2.74-3.44s.73-3.41 2.74-3.41a2.35 2.35 0 0 1 2 .92v-3.75H22v9.53h-1.62zm-1.57-.43c1.13 0 1.5-1.19 1.5-2.12s-.43-2.09-1.52-2.09-1.41 1.21-1.41 2.09.31 2.12 1.43 2.12zM29.35 127.26a4.41 4.41 0 0 1-2.25.52 3.11 3.11 0 0 1-3.42-3.39c0-1.89 1-3.46 3-3.46 2.43 0 3.11 1.67 3.11 4h-4.48a1.71 1.71 0 0 0 1.87 1.65 4.5 4.5 0 0 0 2.17-.66zm-1.14-3.54c-.05-.83-.44-1.54-1.39-1.54a1.48 1.48 0 0 0-1.51 1.54zM31.48 121.09h1.62v.91a2.46 2.46 0 0 1 2.15-1c1.55 0 2.23 1.1 2.23 2.57v4.13h-1.69v-3.49c0-.8 0-1.89-1.1-1.89s-1.5 1.34-1.5 2.18v3.2h-1.71zM39.57 118.1h1.7v3.82a2.3 2.3 0 0 1 2-1c2 0 2.74 1.6 2.74 3.41s-.74 3.44-2.74 3.44a2.38 2.38 0 0 1-2-1v.8h-1.7zm3.22 8.36c1.11 0 1.43-1.22 1.43-2.12s-.3-2.09-1.41-2.09-1.52 1.17-1.52 2.09.36 2.12 1.5 2.12zM52.9 127.26a4.41 4.41 0 0 1-2.25.52 3.11 3.11 0 0 1-3.42-3.39c0-1.89 1-3.46 3-3.46 2.43 0 3.12 1.67 3.12 4h-4.49a1.71 1.71 0 0 0 1.87 1.65 4.43 4.43 0 0 0 2.17-.66zm-1.14-3.54a1.369 1.369 0 0 0-1.39-1.54 1.49 1.49 0 0 0-1.51 1.54zM55.08 118.1h1.7v9.53h-1.7zM59.18 121.43a5.77 5.77 0 0 1 2.28-.5c2 0 2.82.83 2.82 2.76v2.48a8.816 8.816 0 0 0 .08 1.46h-1.5c-.06-.34-.06-.77-.08-1a2.32 2.32 0 0 1-2 1.13 2.08 2.08 0 0 1-2.29-1.94 1.92 1.92 0 0 1 1.1-1.82 5.16 5.16 0 0 1 2.2-.38h.94c0-1.06-.47-1.41-1.48-1.41a3.44 3.44 0 0 0-2 .71zm.32-1.54v-1.47H61v1.47zm1.68 6.65a1.42 1.42 0 0 0 1.19-.59 2.13 2.13 0 0 0 .36-1.34H62c-.76 0-1.89.12-1.89 1.13-.01.56.46.8 1.07.8zm2.41-8.12v1.47h-1.47v-1.47zM72.29 121.09V127c0 1.78-.71 3.45-3.46 3.45a5.79 5.79 0 0 1-2.26-.44l.14-1.45a4.89 4.89 0 0 0 1.9.57c1.89 0 2-1.41 2-2.54a2.34 2.34 0 0 1-2 1c-1.93 0-2.66-1.55-2.66-3.3 0-1.58.81-3.4 2.77-3.4a2.17 2.17 0 0 1 2 1V121zm-1.71 3.2c0-1.12-.43-2-1.42-2-1.16 0-1.53 1.07-1.53 2.08s.48 2 1.45 2 1.5-.99 1.5-2.08zM79.61 127.26a4.43 4.43 0 0 1-2.25.52 3.11 3.11 0 0 1-3.42-3.39c0-1.89 1-3.46 3-3.46 2.43 0 3.11 1.67 3.11 4h-4.48a1.71 1.71 0 0 0 1.87 1.65 4.5 4.5 0 0 0 2.17-.66zm-1.15-3.54a1.366 1.366 0 0 0-1.38-1.54 1.48 1.48 0 0 0-1.51 1.54z" fill="#473d38"/></svg>