<?xml version="1.0" encoding="UTF-8"?><svg id="Ebene_2" xmlns="http://www.w3.org/2000/svg" xmlns:xlink="http://www.w3.org/1999/xlink" viewBox="0 0 231 231"><defs><style>.cls-1{fill:#fff;}.cls-2{fill:#d53c3c;filter:url(#drop-shadow-1);}</style><filter id="drop-shadow-1" x="0" y="0" width="231" height="231" filterUnits="userSpaceOnUse"><feOffset dx="2.1" dy="3.15"/><feGaussianBlur result="blur" stdDeviation="2.1"/><feFlood flood-color="#292928" flood-opacity=".75"/><feComposite in2="blur" operator="in"/><feComposite in="SourceGraphic"/></filter></defs><g id="Ebene_1-2"><circle class="cls-2" cx="112.9" cy="112.21" r="108.39"/><path class="cls-1" d="M50.99,64.81l1.56-.14.71,8.1,10.34-.9-.71-8.1,1.56-.14,1.6,18.31-1.56.14-.77-8.75-10.34.9.76,8.75-1.56.14-1.6-18.31Z"/><path class="cls-1" d="M68.64,63.27l1.69-.15.2,2.23-1.69.15-.2-2.23ZM69.19,68.36l1.49-.13,1.15,13.21-1.49.13-1.16-13.21Z"/><path class="cls-1" d="M86.53,76.67c-.1,1.16-.57,2.14-1.4,2.94s-2.06,1.27-3.7,1.41c-1.9.17-3.43-.32-4.58-1.45-1.16-1.13-1.83-2.76-2.02-4.9-.1-1.16-.04-2.2.18-3.12.22-.92.57-1.7,1.06-2.35.49-.65,1.08-1.17,1.78-1.54.7-.37,1.49-.59,2.36-.67,1.03-.09,1.91,0,2.66.27.75.27,1.37.67,1.88,1.21.5.53.89,1.18,1.17,1.95.27.77.45,1.61.53,2.51l.08.95-10.16.89c.07.75.22,1.45.47,2.09.25.64.58,1.19,1,1.64.42.45.92.8,1.51,1.03.59.23,1.25.32,1.99.25.67-.06,1.22-.17,1.68-.34.45-.17.82-.39,1.11-.65.29-.27.51-.57.66-.9.15-.33.26-.7.33-1.1l1.44-.13ZM84.87,72.73c-.06-.72-.2-1.37-.4-1.96-.21-.58-.49-1.08-.85-1.49-.36-.41-.82-.71-1.37-.9-.55-.19-1.19-.26-1.93-.19-1.28.11-2.27.6-2.97,1.47s-1.05,2.14-1.06,3.81l8.59-.75Z"/><path class="cls-1" d="M89.32,66.6l1.49-.13.19,2.15c.46-.8,1.02-1.43,1.67-1.9.65-.47,1.36-.74,2.12-.81.19-.02.37-.03.53-.03.16,0,.34,0,.53.02l-.05,1.43c-.31-.02-.6-.03-.85,0-.45.04-.89.16-1.34.36-.45.2-.86.52-1.24.95-.36.38-.65.82-.87,1.33s-.29,1.1-.23,1.77l.7,7.95-1.49.13-1.16-13.21Z"/><path class="cls-1" d="M105.15,66.46l-2.05.18-.11-1.23,2.05-.18-.13-1.51c-.06-.65,0-1.22.16-1.72.16-.5.4-.91.71-1.25.31-.34.67-.6,1.11-.79.43-.19.89-.31,1.39-.35.36-.03.69-.04.99-.02.3.02.63.06.98.13l-.2,1.28c-.28-.06-.54-.1-.77-.11-.23-.01-.48,0-.73.01-.67.06-1.21.28-1.63.67-.42.39-.59,1.05-.51,1.97l.14,1.56,3.51-.31.11,1.23-3.51.31,1.05,11.98-1.49.13-1.05-11.98ZM111.75,59.5l1.69-.15.2,2.23-1.69.15-.2-2.23ZM112.3,64.59l1.49-.13,1.15,13.21-1.49.13-1.16-13.21Z"/><path class="cls-1" d="M117.76,64.11l1.49-.13.19,2.15c.64-.97,1.35-1.69,2.12-2.16.78-.47,1.63-.75,2.55-.83,1.5-.13,2.65.19,3.45.97.79.78,1.25,1.93,1.39,3.47l.77,8.8-1.49.13-.73-8.39c-.12-1.39-.46-2.36-1.01-2.92-.55-.56-1.36-.8-2.44-.7-.51.04-1.05.19-1.6.44-.56.25-1.05.6-1.47,1.07-.47.49-.82.98-1.03,1.47-.22.49-.29,1.15-.21,1.97l.68,7.75-1.49.13-1.16-13.21Z"/><path class="cls-1" d="M143.19,73.21c-.5.78-1.09,1.42-1.78,1.91-.69.49-1.55.78-2.6.87-.97.09-1.83-.03-2.58-.34-.74-.31-1.37-.77-1.89-1.36-.52-.59-.92-1.29-1.22-2.1s-.48-1.67-.56-2.57c-.2-2.26.17-4.06,1.12-5.41.94-1.35,2.34-2.1,4.18-2.27.72-.06,1.47.03,2.24.27.78.24,1.53.76,2.26,1.56l-.61-6.9,1.49-.13,1.6,18.31-1.49.13-.17-1.98ZM142.82,68.05c-.05-.6-.13-1.11-.24-1.54-.11-.43-.24-.81-.41-1.13-.17-.32-.37-.6-.63-.84s-.54-.46-.87-.67c-.44-.27-.87-.46-1.28-.56-.41-.1-.88-.13-1.39-.08-.63.06-1.21.21-1.71.47-.51.26-.94.64-1.29,1.13-.34.5-.6,1.12-.75,1.88-.16.75-.19,1.66-.1,2.72.1,1.08.3,1.97.61,2.67.31.71.68,1.26,1.11,1.66.43.4.9.67,1.4.81.5.14,1,.18,1.5.14.53-.05,1-.15,1.41-.3.41-.16.82-.42,1.24-.78.56-.5.97-1.1,1.24-1.81.27-.71.35-1.58.26-2.61l-.1-1.15Z"/><path class="cls-1" d="M159.47,70.28c-.11,1.16-.57,2.14-1.4,2.94-.82.8-2.06,1.27-3.7,1.41-1.9.17-3.43-.32-4.58-1.45-1.16-1.13-1.83-2.77-2.02-4.9-.1-1.16-.04-2.2.18-3.12.22-.92.58-1.7,1.06-2.35.49-.65,1.08-1.17,1.78-1.54.7-.37,1.49-.6,2.36-.67,1.03-.09,1.91,0,2.66.27.75.27,1.37.67,1.88,1.21.5.53.89,1.18,1.17,1.95.27.77.45,1.61.53,2.51l.08.95-10.16.89c.06.75.22,1.45.47,2.09.24.64.58,1.19,1,1.64.42.45.92.8,1.51,1.03s1.25.32,1.99.25c.67-.06,1.22-.17,1.68-.34s.82-.39,1.11-.65.51-.57.66-.9c.15-.33.26-.7.33-1.1l1.44-.13ZM157.81,66.35c-.06-.72-.2-1.37-.4-1.95-.21-.59-.49-1.08-.85-1.49s-.82-.71-1.37-.9-1.2-.26-1.93-.19c-1.28.11-2.27.6-2.97,1.47-.7.87-1.05,2.14-1.06,3.81l8.59-.75Z"/><path class="cls-1" d="M162.26,60.22l1.49-.13.19,2.15c.64-.97,1.35-1.69,2.12-2.16.78-.47,1.63-.75,2.55-.83,1.5-.13,2.65.19,3.45.96.79.78,1.25,1.93,1.39,3.47l.77,8.8-1.49.13-.73-8.39c-.12-1.39-.46-2.36-1.01-2.92s-1.36-.8-2.44-.7c-.51.04-1.05.19-1.6.44-.56.25-1.05.6-1.47,1.07-.47.49-.82.98-1.03,1.47-.22.49-.29,1.15-.21,1.97l.68,7.75-1.49.13-1.16-13.21Z"/><path class="cls-1" d="M56.87,107.03c.39,1.34,1.07,2.28,2.03,2.81s2.34.71,4.13.56c.92-.08,1.68-.25,2.27-.51s1.05-.57,1.38-.95c.33-.37.55-.8.66-1.27.11-.48.15-.97.1-1.48-.04-.43-.12-.83-.25-1.21-.13-.38-.34-.71-.63-1-.29-.29-.7-.54-1.21-.73s-1.18-.33-2-.39l-2.32-.19c-.9-.08-1.71-.2-2.42-.38-.71-.18-1.33-.44-1.84-.78-.51-.34-.92-.79-1.22-1.35-.3-.56-.49-1.26-.56-2.1-.07-.84.04-1.58.33-2.23s.72-1.2,1.28-1.65c.55-.45,1.22-.81,2-1.08.78-.27,1.61-.44,2.5-.52,1.14-.1,2.11-.06,2.91.12.79.18,1.45.46,1.98.82.53.37.96.8,1.28,1.3.32.5.58,1,.78,1.52l-1.4.54c-.22-.52-.46-.97-.73-1.37-.27-.4-.61-.73-1.02-.98s-.91-.44-1.51-.54c-.59-.1-1.31-.12-2.15-.04-.94.08-1.72.24-2.34.48s-1.11.53-1.47.88c-.37.35-.62.75-.75,1.2-.13.45-.18.92-.13,1.42.04.51.14.95.3,1.32.15.37.38.67.7.92.31.25.72.45,1.23.59s1.13.25,1.88.33l2.63.24c.94.09,1.76.24,2.46.46s1.29.51,1.77.89c.48.38.85.85,1.12,1.41.26.56.43,1.24.5,2.02.06.7-.02,1.38-.24,2.02-.22.65-.58,1.23-1.08,1.74-.5.51-1.14.94-1.92,1.28-.78.34-1.71.56-2.79.66-.99.09-1.92.07-2.78-.04-.86-.11-1.63-.35-2.31-.72-.68-.36-1.25-.86-1.72-1.49-.47-.63-.8-1.42-.98-2.37l1.54-.13Z"/><path class="cls-1" d="M71.54,92.12l1.69-.15.2,2.23-1.69.15-.2-2.23ZM72.09,97.22l1.49-.13,1.16,13.21-1.49.13-1.16-13.21Z"/><path class="cls-1" d="M89.43,105.52c-.11,1.16-.57,2.14-1.4,2.94-.83.8-2.06,1.27-3.7,1.41-1.9.17-3.43-.32-4.58-1.45-1.16-1.13-1.83-2.76-2.02-4.9-.1-1.16-.04-2.2.18-3.12.22-.92.57-1.7,1.06-2.35.49-.65,1.08-1.17,1.78-1.54.7-.37,1.49-.6,2.36-.67,1.03-.09,1.91,0,2.66.27.75.27,1.37.67,1.88,1.21.5.53.89,1.18,1.17,1.95.27.77.45,1.61.53,2.51l.08.95-10.16.89c.06.75.22,1.45.47,2.09.24.64.58,1.19,1,1.64.42.45.92.8,1.51,1.03.59.23,1.25.32,1.99.25.67-.06,1.22-.17,1.68-.34.45-.17.82-.39,1.11-.65.29-.27.51-.57.66-.9.15-.33.26-.7.33-1.1l1.44-.13ZM87.77,101.58c-.06-.72-.2-1.37-.4-1.95-.21-.58-.49-1.08-.85-1.49-.36-.41-.82-.71-1.37-.9s-1.2-.26-1.93-.19c-1.28.11-2.27.6-2.97,1.48-.7.87-1.05,2.14-1.06,3.81l8.59-.75Z"/><path class="cls-1" d="M98.2,94.94l1.49-.13.73,8.39c.12,1.38.43,2.36.92,2.93s1.26.81,2.32.71c.53-.05,1.05-.2,1.56-.45.51-.25.99-.6,1.43-1.06.46-.49.79-.98,1.01-1.47.22-.49.29-1.15.22-1.97l-.68-7.75,1.49-.13,1.16,13.21-1.49.13-.19-2.16c-1.24,1.83-2.76,2.83-4.57,2.99-1.5.13-2.62-.18-3.34-.95-.72-.76-1.15-1.93-1.29-3.51l-.77-8.8Z"/><path class="cls-1" d="M112.58,93.68l1.49-.13.19,2.15c.64-.97,1.35-1.69,2.12-2.16.78-.47,1.63-.75,2.55-.83,1.5-.13,2.65.19,3.45.96.79.78,1.25,1.93,1.39,3.47l.77,8.8-1.49.13-.73-8.39c-.12-1.39-.46-2.36-1.01-2.92-.55-.56-1.36-.8-2.44-.7-.51.04-1.05.19-1.6.44-.56.25-1.04.6-1.47,1.07-.47.49-.82.98-1.03,1.47-.21.49-.29,1.15-.21,1.97l.68,7.75-1.49.13-1.16-13.21Z"/><path class="cls-1" d="M128.83,101.87c.28,1.01.78,1.7,1.5,2.07.72.37,1.71.5,2.98.39,1.28-.11,2.17-.43,2.65-.96.49-.53.7-1.15.64-1.87-.03-.31-.09-.59-.18-.85-.09-.26-.24-.49-.46-.7-.22-.21-.52-.37-.89-.49-.38-.12-.87-.21-1.46-.26l-1.64-.11c-.71-.06-1.35-.15-1.92-.27-.57-.12-1.06-.31-1.47-.56-.41-.25-.73-.57-.96-.98-.23-.4-.38-.91-.43-1.53-.05-.58.03-1.12.25-1.61s.53-.92.95-1.27c.42-.35.92-.64,1.51-.87.59-.22,1.24-.37,1.94-.43.91-.08,1.67-.06,2.29.07s1.14.33,1.55.6c.41.27.74.61.99,1,.25.39.46.81.62,1.27l-1.33.4c-.17-.38-.36-.71-.56-1-.21-.28-.46-.51-.75-.68-.29-.17-.64-.29-1.06-.36-.42-.07-.94-.07-1.55-.02-.68.06-1.25.17-1.7.34-.45.17-.81.38-1.07.62-.26.25-.44.52-.54.82-.1.3-.13.61-.1.91.03.31.09.58.18.82s.25.45.47.62c.22.17.52.31.9.41s.87.18,1.48.23l2.05.16c1.41.12,2.48.44,3.21.97.74.53,1.16,1.4,1.26,2.62.04.51-.02,1.01-.2,1.49-.17.48-.45.91-.84,1.28-.39.37-.89.68-1.51.93-.62.25-1.33.41-2.15.49-.8.07-1.55.06-2.24-.04-.69-.1-1.29-.28-1.82-.57-.52-.28-.96-.66-1.31-1.15-.35-.49-.6-1.09-.73-1.82l1.46-.13Z"/><path class="cls-1" d="M152.19,100.03c-.11,1.16-.57,2.14-1.4,2.94-.83.8-2.06,1.27-3.7,1.41-1.9.17-3.43-.32-4.59-1.45-1.16-1.13-1.83-2.76-2.02-4.9-.1-1.16-.04-2.2.18-3.12.22-.92.57-1.7,1.06-2.35.49-.65,1.08-1.17,1.78-1.54.7-.37,1.49-.59,2.36-.67,1.03-.09,1.91,0,2.66.27.75.27,1.37.67,1.88,1.21.5.53.89,1.18,1.16,1.95.28.77.45,1.61.53,2.51l.08.95-10.16.89c.06.75.22,1.45.47,2.09.24.64.58,1.19,1,1.64.42.45.92.8,1.51,1.03.59.23,1.25.32,1.99.25.67-.06,1.22-.17,1.68-.34.45-.17.82-.39,1.1-.65.29-.27.51-.57.66-.9.15-.33.26-.7.33-1.1l1.44-.13ZM150.53,96.09c-.06-.72-.2-1.37-.4-1.95-.21-.58-.49-1.08-.85-1.49-.36-.41-.82-.71-1.37-.9s-1.2-.26-1.93-.19c-1.28.11-2.27.6-2.97,1.47s-1.05,2.14-1.06,3.81l8.59-.75Z"/><path class="cls-1" d="M154.98,89.97l1.49-.13.19,2.15c.46-.8,1.02-1.43,1.67-1.9.65-.47,1.36-.74,2.13-.81.19-.02.36-.03.53-.03.16,0,.34,0,.53.02l-.05,1.43c-.31-.02-.6-.03-.85,0-.45.04-.89.16-1.34.36-.45.2-.86.52-1.24.95-.36.38-.65.82-.87,1.33-.21.51-.29,1.1-.23,1.76l.7,7.95-1.49.13-1.16-13.21Z"/><path class="cls-1" d="M175.04,98.03c-.11,1.16-.57,2.14-1.4,2.94-.83.8-2.06,1.27-3.7,1.41-1.9.17-3.43-.32-4.58-1.45-1.16-1.13-1.83-2.76-2.02-4.9-.1-1.16-.04-2.2.18-3.12.22-.92.57-1.7,1.06-2.35.49-.65,1.08-1.17,1.78-1.54.7-.37,1.49-.6,2.36-.67,1.03-.09,1.91,0,2.66.27.75.27,1.37.67,1.88,1.21.5.53.89,1.18,1.17,1.95.27.77.45,1.61.53,2.51l.08.95-10.16.89c.06.75.22,1.45.47,2.09.24.64.58,1.19,1,1.64.42.45.92.8,1.51,1.03.59.23,1.25.32,1.99.25.67-.06,1.22-.17,1.68-.34.45-.17.82-.39,1.1-.65.29-.27.51-.57.66-.9.15-.33.26-.7.33-1.1l1.44-.13ZM173.38,94.09c-.06-.72-.2-1.37-.4-1.95-.21-.58-.49-1.08-.85-1.49-.36-.41-.82-.71-1.37-.9s-1.2-.26-1.93-.19c-1.28.11-2.27.6-2.97,1.48-.7.87-1.05,2.14-1.06,3.81l8.59-.75Z"/><path class="cls-1" d="M63.79,137.34l-.89,3.1-4.62.4,5.88-18.19,4.13-.36,8.92,16.89-4.59.4-1.44-2.9-7.38.65ZM66.65,127.53l-1.75,5.99,4.51-.39-2.76-5.6Z"/><path class="cls-1" d="M83.41,135.08l.31,3.54-4.33.38-1.53-17.44,4.33-.38.69,7.92,6.26-8.53,5.13-.45-5.97,8.22,8.06,9.17-5.28.46-5.43-5.98-2.24,3.09Z"/><path class="cls-1" d="M105.62,123.04l1.19,13.56-4.33.38-1.19-13.57-5.56.49-.34-3.87,15.44-1.35.34,3.87-5.54.48Z"/><path class="cls-1" d="M118.93,135.54l-4.33.38-1.53-17.44,4.33-.38,1.53,17.44Z"/><path class="cls-1" d="M139.64,124.94c.45,5.08-3.18,9.43-8.46,9.89-5.26.46-9.58-3.19-10.03-8.27-.45-5.08,3.18-9.43,8.44-9.89,5.28-.46,9.61,3.19,10.05,8.27ZM135.23,125.33c-.24-2.74-2.47-4.88-5.29-4.63-2.82.25-4.64,2.73-4.4,5.48s2.47,4.88,5.29,4.63c2.82-.25,4.64-2.73,4.4-5.48Z"/><path class="cls-1" d="M159.4,132l-3.36.29-9.2-8.83.84,9.57-4.33.38-1.53-17.44,3.31-.29,9.27,9.08-.86-9.82,4.33-.38,1.53,17.44Z"/><path class="cls-1" d="M176.28,118.41l-4.36.38c-.35-1.29-1.24-2.11-3.01-1.96-1.49.13-2.43.83-2.33,1.96.08.95.81,1.3,2.14,1.47l2.49.35c3.24.41,5.43,1.52,5.69,4.52.3,3.49-2.38,5.92-6.73,6.3-3.92.34-7.62-1.19-8.41-5.47l4.33-.38c.42,1.51,1.83,2.32,3.88,2.14,1.62-.14,2.41-.8,2.33-1.75-.05-.59-.46-1.17-1.98-1.33l-2.93-.39c-3.5-.44-5.26-1.92-5.5-4.69-.31-3.49,2.32-5.94,6.43-6.3,2.82-.25,7.12.49,7.97,5.14Z"/><path class="cls-1" d="M53.35,167.37l-.89,3.1-4.62.4,5.88-18.19,4.13-.36,8.92,16.89-4.59.4-1.44-2.9-7.38.65ZM56.21,157.56l-1.75,5.99,4.52-.4-2.77-5.6Z"/><path class="cls-1" d="M85,167.62l-3.36.29-9.2-8.83.84,9.56-4.33.38-1.53-17.44,3.31-.29,9.27,9.08-.86-9.82,4.33-.38,1.53,17.44Z"/><path class="cls-1" d="M106.16,165.77l-3.23.28-.37-2.09c-1.12,1.65-2.86,2.73-5.3,2.94-5.46.48-9.62-3.09-10.06-8.09-.48-5.44,3.19-9.61,8.52-10.07,4.26-.37,8.16,1.71,9.27,5.8l-4.54.4c-.95-1.96-2.74-2.37-4.3-2.23-2.97.26-4.84,2.54-4.57,5.62.24,2.74,2.41,4.8,5.51,4.53,2.03-.18,3.48-1.31,4.18-3.05l-5,.39-.3-3.41,9.33-.82.86,9.79Z"/><path class="cls-1" d="M113.32,154.57l7.72-.67.32,3.69-7.72.67.27,3.03,8.85-.77.33,3.77-13.18,1.15-1.53-17.44,13.18-1.15.33,3.77-8.85.77.28,3.18Z"/><path class="cls-1" d="M140.82,157.85c.25,2.9-1.91,5.05-5.83,5.39l-9.13.8-1.53-17.44,8.62-.75c3.77-.33,6.16,1.27,6.41,4.12.14,1.62-.61,3.36-2.1,4.03,2.17.28,3.4,1.98,3.57,3.85ZM129.29,153.33l3.62-.32c1.62-.14,2.45-.96,2.35-2.09-.1-1.1-.99-1.62-2.66-1.47l-3.62.32.31,3.56ZM134.11,159.71c1.77-.15,2.5-1.02,2.41-2.05-.1-1.08-1.04-1.54-2.63-1.4l-4.31.38.3,3.44,4.23-.37Z"/><path class="cls-1" d="M160.77,152.21c.44,5.08-3.18,9.43-8.46,9.89-5.26.46-9.58-3.19-10.03-8.27-.45-5.08,3.18-9.42,8.44-9.88,5.28-.46,9.61,3.19,10.05,8.27ZM156.36,152.59c-.24-2.74-2.47-4.88-5.29-4.63s-4.64,2.73-4.4,5.48c.24,2.74,2.47,4.88,5.29,4.63,2.82-.25,4.64-2.73,4.41-5.48Z"/><path class="cls-1" d="M170.97,146.43l1.19,13.57-4.33.38-1.19-13.57-5.56.49-.34-3.87,15.44-1.35.34,3.87-5.54.48Z"/><path class="cls-1" d="M183.37,148.45l7.72-.67.32,3.69-7.72.67.26,3.03,8.85-.77.33,3.77-13.18,1.15-1.53-17.44,13.18-1.15.33,3.77-8.85.77.28,3.18Z"/></g></svg>