
<svg width="217px" height="217px" viewBox="0 0 217 217" version="1.1" xmlns="http://www.w3.org/2000/svg" xmlns:xlink="http://www.w3.org/1999/xlink">
    <g id="Page-1" stroke="none" stroke-width="1" fill="none" fill-rule="evenodd">
        <g id="aktionsangebote" fill-rule="nonzero">
            <circle id="Oval" fill="#D53C3C" cx="108.39" cy="108.39" r="108.39"></circle>
            <path d="M46.48,60.99 L48.04,60.85 L48.75,68.95 L59.09,68.05 L58.38,59.95 L59.94,59.81 L61.54,78.12 L59.98,78.26 L59.21,69.51 L48.87,70.41 L49.63,79.16 L48.07,79.3 L46.47,60.99 L46.48,60.99 Z M64.13,59.45 L65.82,59.3 L66.02,61.53 L64.33,61.68 L64.13,59.45 L64.13,59.45 Z M64.68,64.54 L66.17,64.41 L67.32,77.62 L65.83,77.75 L64.67,64.54 L64.68,64.54 Z M82.02,72.85 C81.92,74.01 81.45,74.99 80.62,75.79 C79.79,76.59 78.56,77.06 76.92,77.2 C75.02,77.37 73.49,76.88 72.34,75.75 C71.18,74.62 70.51,72.99 70.32,70.85 C70.22,69.69 70.28,68.65 70.5,67.73 C70.72,66.81 71.07,66.03 71.56,65.38 C72.05,64.73 72.64,64.21 73.34,63.84 C74.04,63.47 74.83,63.25 75.7,63.17 C76.73,63.08 77.61,63.17 78.36,63.44 C79.11,63.71 79.73,64.11 80.24,64.65 C80.74,65.18 81.13,65.83 81.41,66.6 C81.68,67.37 81.86,68.21 81.94,69.11 L82.02,70.06 L71.86,70.95 C71.93,71.7 72.08,72.4 72.33,73.04 C72.58,73.68 72.91,74.23 73.33,74.68 C73.75,75.13 74.25,75.48 74.84,75.71 C75.43,75.94 76.09,76.03 76.83,75.96 C77.5,75.9 78.05,75.79 78.51,75.62 C78.916979,75.4737686 79.2933337,75.2533807 79.62,74.97 C79.91,74.7 80.13,74.4 80.28,74.07 C80.43,73.74 80.54,73.37 80.61,72.97 L82.05,72.84 L82.02,72.85 Z M80.36,68.91 C80.3,68.19 80.16,67.54 79.96,66.95 C79.75,66.37 79.47,65.87 79.11,65.46 C78.7404465,65.0447179 78.2678805,64.7342732 77.74,64.56 C77.19,64.37 76.55,64.3 75.81,64.37 C74.53,64.48 73.54,64.97 72.84,65.84 C72.14,66.71 71.79,67.98 71.78,69.65 L80.37,68.9 L80.36,68.91 Z M84.81,62.78 L86.3,62.65 L86.49,64.8 C86.95,64 87.51,63.37 88.16,62.9 C88.81,62.43 89.52,62.16 90.28,62.09 C90.47,62.07 90.65,62.06 90.81,62.06 C90.97,62.06 91.15,62.06 91.34,62.08 L91.29,63.51 C90.98,63.49 90.69,63.48 90.44,63.51 C89.99,63.55 89.55,63.67 89.1,63.87 C88.65,64.07 88.24,64.39 87.86,64.82 C87.5,65.2 87.21,65.64 86.99,66.15 C86.77,66.66 86.7,67.25 86.76,67.92 L87.46,75.87 L85.97,76 L84.81,62.79 L84.81,62.78 Z M100.64,62.64 L98.59,62.82 L98.48,61.59 L100.53,61.41 L100.4,59.9 C100.34,59.25 100.4,58.68 100.56,58.18 C100.72,57.68 100.96,57.27 101.27,56.93 C101.58,56.59 101.94,56.33 102.38,56.14 C102.81,55.95 103.27,55.83 103.77,55.79 C104.13,55.76 104.46,55.75 104.76,55.77 C105.06,55.79 105.39,55.83 105.74,55.9 L105.54,57.18 C105.26,57.12 105,57.08 104.77,57.07 C104.54,57.06 104.29,57.07 104.04,57.08 C103.37,57.14 102.83,57.36 102.41,57.75 C101.99,58.14 101.82,58.8 101.9,59.72 L102.04,61.28 L105.55,60.97 L105.66,62.2 L102.15,62.51 L103.2,74.49 L101.71,74.62 L100.66,62.64 L100.64,62.64 Z M107.24,55.68 L108.93,55.53 L109.13,57.76 L107.44,57.91 L107.24,55.68 Z M107.79,60.77 L109.28,60.64 L110.43,73.85 L108.94,73.98 L107.78,60.77 L107.79,60.77 Z M113.25,60.29 L114.74,60.16 L114.93,62.31 C115.57,61.34 116.28,60.62 117.05,60.15 C117.83,59.68 118.68,59.4 119.6,59.32 C121.1,59.19 122.25,59.51 123.05,60.29 C123.84,61.07 124.3,62.22 124.44,63.76 L125.21,72.56 L123.72,72.69 L122.99,64.3 C122.87,62.91 122.53,61.94 121.98,61.38 C121.43,60.82 120.62,60.58 119.54,60.68 C119.03,60.72 118.49,60.87 117.94,61.12 C117.38,61.37 116.89,61.72 116.47,62.19 C116,62.68 115.65,63.17 115.44,63.66 C115.22,64.15 115.15,64.81 115.23,65.63 L115.91,73.38 L114.42,73.51 L113.26,60.3 L113.25,60.29 Z M138.68,69.39 C138.18,70.17 137.59,70.81 136.9,71.3 C136.21,71.79 135.35,72.08 134.3,72.17 C133.33,72.26 132.47,72.14 131.72,71.83 C130.98,71.52 130.35,71.06 129.83,70.47 C129.31,69.88 128.91,69.18 128.61,68.37 C128.31,67.56 128.13,66.7 128.05,65.8 C127.85,63.54 128.22,61.74 129.17,60.39 C130.11,59.04 131.51,58.29 133.35,58.12 C134.07,58.06 134.82,58.15 135.59,58.39 C136.37,58.63 137.12,59.15 137.85,59.95 L137.24,53.05 L138.73,52.92 L140.33,71.23 L138.84,71.36 L138.67,69.38 L138.68,69.39 Z M138.31,64.23 C138.26,63.63 138.18,63.12 138.07,62.69 C137.96,62.26 137.83,61.88 137.66,61.56 C137.49,61.24 137.29,60.96 137.03,60.72 C136.77,60.48 136.49,60.26 136.16,60.05 C135.72,59.78 135.29,59.59 134.88,59.49 C134.47,59.39 134,59.36 133.49,59.41 C132.86,59.47 132.28,59.62 131.78,59.88 C131.27,60.14 130.84,60.52 130.49,61.01 C130.15,61.51 129.89,62.13 129.74,62.89 C129.58,63.64 129.55,64.55 129.64,65.61 C129.74,66.69 129.94,67.58 130.25,68.28 C130.56,68.99 130.93,69.54 131.36,69.94 C131.79,70.34 132.26,70.61 132.76,70.75 C133.26,70.89 133.76,70.93 134.26,70.89 C134.79,70.84 135.26,70.74 135.67,70.59 C136.08,70.43 136.49,70.17 136.91,69.81 C137.47,69.31 137.88,68.71 138.15,68 C138.42,67.29 138.5,66.42 138.41,65.39 L138.31,64.24 L138.31,64.23 Z M154.96,66.46 C154.85,67.62 154.39,68.6 153.56,69.4 C152.74,70.2 151.5,70.67 149.86,70.81 C147.96,70.98 146.43,70.49 145.28,69.36 C144.12,68.23 143.45,66.59 143.26,64.46 C143.16,63.3 143.22,62.26 143.44,61.34 C143.66,60.42 144.02,59.64 144.5,58.99 C144.99,58.34 145.58,57.82 146.28,57.45 C146.98,57.08 147.77,56.85 148.64,56.78 C149.67,56.69 150.55,56.78 151.3,57.05 C152.05,57.32 152.67,57.72 153.18,58.26 C153.68,58.79 154.07,59.44 154.35,60.21 C154.62,60.98 154.8,61.82 154.88,62.72 L154.96,63.67 L144.8,64.56 C144.86,65.31 145.02,66.01 145.27,66.65 C145.51,67.29 145.85,67.84 146.27,68.29 C146.69,68.74 147.19,69.09 147.78,69.32 C148.37,69.55 149.03,69.64 149.77,69.57 C150.44,69.51 150.99,69.4 151.45,69.23 C151.91,69.06 152.27,68.84 152.56,68.58 C152.85,68.32 153.07,68.01 153.22,67.68 C153.37,67.35 153.48,66.98 153.55,66.58 L154.99,66.45 L154.96,66.46 Z M153.3,62.53 C153.248267,61.8658964 153.113896,61.2108394 152.9,60.58 C152.69,59.99 152.41,59.5 152.05,59.09 C151.69,58.68 151.23,58.38 150.68,58.19 C150.13,58 149.48,57.93 148.75,58 C147.47,58.11 146.48,58.6 145.78,59.47 C145.08,60.34 144.73,61.61 144.72,63.28 L153.31,62.53 L153.3,62.53 Z M157.75,56.4 L159.24,56.27 L159.43,58.42 C160.07,57.45 160.78,56.73 161.55,56.26 C162.33,55.79 163.18,55.51 164.1,55.43 C165.6,55.3 166.75,55.62 167.55,56.39 C168.34,57.17 168.8,58.32 168.94,59.86 L169.71,68.66 L168.22,68.79 L167.49,60.4 C167.37,59.01 167.03,58.04 166.48,57.48 C165.93,56.92 165.12,56.68 164.04,56.78 C163.53,56.82 162.99,56.97 162.44,57.22 C161.88,57.47 161.39,57.82 160.97,58.29 C160.5,58.78 160.15,59.27 159.94,59.76 C159.72,60.25 159.65,60.91 159.73,61.73 L160.41,69.48 L158.92,69.61 L157.76,56.4 L157.75,56.4 Z M52.36,103.21 C52.75,104.55 53.43,105.49 54.39,106.02 C55.35,106.55 56.73,106.73 58.52,106.58 C59.44,106.5 60.2,106.33 60.79,106.07 C61.38,105.81 61.84,105.5 62.17,105.12 C62.5,104.75 62.72,104.32 62.83,103.85 C62.94,103.37 62.98,102.88 62.93,102.37 C62.89,101.94 62.81,101.54 62.68,101.16 C62.55,100.78 62.34,100.45 62.05,100.16 C61.76,99.87 61.35,99.62 60.84,99.43 C60.33,99.24 59.66,99.1 58.84,99.04 L56.52,98.85 C55.62,98.77 54.81,98.65 54.1,98.47 C53.39,98.29 52.77,98.03 52.26,97.69 C51.75,97.35 51.34,96.9 51.04,96.34 C50.74,95.78 50.55,95.08 50.48,94.24 C50.41,93.4 50.52,92.66 50.81,92.01 C51.1,91.36 51.53,90.81 52.09,90.36 C52.64,89.91 53.31,89.55 54.09,89.28 C54.87,89.01 55.7,88.84 56.59,88.76 C57.73,88.66 58.7,88.7 59.5,88.88 C60.29,89.06 60.95,89.34 61.48,89.7 C62.01,90.07 62.44,90.5 62.76,91 C63.08,91.5 63.34,92 63.54,92.52 L62.14,93.06 C61.92,92.54 61.68,92.09 61.41,91.69 C61.14,91.29 60.8,90.96 60.39,90.71 C59.98,90.46 59.48,90.27 58.88,90.17 C58.29,90.07 57.57,90.05 56.73,90.13 C55.79,90.21 55.01,90.37 54.39,90.61 C53.77,90.85 53.28,91.14 52.92,91.49 C52.55,91.84 52.3,92.24 52.17,92.69 C52.04,93.14 51.99,93.61 52.04,94.11 C52.08,94.62 52.18,95.06 52.34,95.43 C52.49,95.8 52.72,96.1 53.04,96.35 C53.35,96.6 53.76,96.8 54.27,96.94 C54.78,97.08 55.4,97.19 56.15,97.27 L58.78,97.51 C59.72,97.6 60.54,97.75 61.24,97.97 C61.94,98.19 62.53,98.48 63.01,98.86 C63.49,99.24 63.86,99.71 64.13,100.27 C64.39,100.83 64.56,101.51 64.63,102.29 C64.69,102.99 64.61,103.67 64.39,104.31 C64.17,104.96 63.81,105.54 63.31,106.05 C62.81,106.56 62.17,106.99 61.39,107.33 C60.61,107.67 59.68,107.89 58.6,107.99 C57.61,108.08 56.68,108.06 55.82,107.95 C54.96,107.84 54.19,107.6 53.51,107.23 C52.83,106.87 52.26,106.37 51.79,105.74 C51.32,105.11 50.99,104.32 50.81,103.37 L52.35,103.24 L52.36,103.21 Z M67.03,88.3 L68.72,88.15 L68.92,90.38 L67.23,90.53 L67.03,88.3 Z M67.58,93.4 L69.07,93.27 L70.23,106.48 L68.74,106.61 L67.58,93.4 Z M84.92,101.7 C84.81,102.86 84.35,103.84 83.52,104.64 C82.69,105.44 81.46,105.91 79.82,106.05 C77.92,106.22 76.39,105.73 75.24,104.6 C74.08,103.47 73.41,101.84 73.22,99.7 C73.12,98.54 73.18,97.5 73.4,96.58 C73.62,95.66 73.97,94.88 74.46,94.23 C74.95,93.58 75.54,93.06 76.24,92.69 C76.94,92.32 77.73,92.09 78.6,92.02 C79.63,91.93 80.51,92.02 81.26,92.29 C82.01,92.56 82.63,92.96 83.14,93.5 C83.64,94.03 84.03,94.68 84.31,95.45 C84.58,96.22 84.76,97.06 84.84,97.96 L84.92,98.91 L74.76,99.8 C74.82,100.55 74.98,101.25 75.23,101.89 C75.47,102.53 75.81,103.08 76.23,103.53 C76.65,103.98 77.15,104.33 77.74,104.56 C78.33,104.79 78.99,104.88 79.73,104.81 C80.4,104.75 80.95,104.64 81.41,104.47 C81.816979,104.323769 82.1933337,104.103381 82.52,103.82 C82.81,103.55 83.03,103.25 83.18,102.92 C83.33,102.59 83.44,102.22 83.51,101.82 L84.95,101.69 L84.92,101.7 Z M83.26,97.76 C83.2082668,97.0958964 83.0738961,96.4408394 82.86,95.81 C82.65,95.23 82.37,94.73 82.01,94.32 C81.65,93.91 81.19,93.61 80.64,93.42 C80.09,93.23 79.44,93.16 78.71,93.23 C77.43,93.34 76.44,93.83 75.74,94.71 C75.04,95.58 74.69,96.85 74.68,98.52 L83.27,97.77 L83.26,97.76 Z M93.69,91.12 L95.18,90.99 L95.91,99.38 C96.03,100.76 96.34,101.74 96.83,102.31 C97.32,102.88 98.09,103.12 99.15,103.02 C99.68,102.97 100.2,102.82 100.71,102.57 C101.22,102.32 101.7,101.97 102.14,101.51 C102.6,101.02 102.93,100.53 103.15,100.04 C103.37,99.55 103.44,98.89 103.37,98.07 L102.69,90.32 L104.18,90.19 L105.34,103.4 L103.85,103.53 L103.66,101.37 C102.42,103.2 100.9,104.2 99.09,104.36 C97.59,104.49 96.47,104.18 95.75,103.41 C95.03,102.65 94.6,101.48 94.46,99.9 L93.69,91.1 L93.69,91.12 Z M108.07,89.86 L109.56,89.73 L109.75,91.88 C110.39,90.91 111.1,90.19 111.87,89.72 C112.65,89.25 113.5,88.97 114.42,88.89 C115.92,88.76 117.07,89.08 117.87,89.85 C118.66,90.63 119.12,91.78 119.26,93.32 L120.03,102.12 L118.54,102.25 L117.81,93.86 C117.69,92.47 117.35,91.5 116.8,90.94 C116.25,90.38 115.44,90.14 114.36,90.24 C113.85,90.28 113.31,90.43 112.76,90.68 C112.2,90.93 111.72,91.28 111.29,91.75 C110.82,92.24 110.47,92.73 110.26,93.22 C110.05,93.71 109.97,94.37 110.05,95.19 L110.73,102.94 L109.24,103.07 L108.08,89.86 L108.07,89.86 Z M124.32,98.05 C124.6,99.06 125.1,99.75 125.82,100.12 C126.54,100.49 127.53,100.62 128.8,100.51 C130.08,100.4 130.97,100.08 131.45,99.55 C131.94,99.02 132.15,98.4 132.09,97.68 C132.06,97.37 132,97.09 131.91,96.83 C131.82,96.57 131.67,96.34 131.45,96.13 C131.23,95.92 130.93,95.76 130.56,95.64 C130.18,95.52 129.69,95.43 129.1,95.38 L127.46,95.27 C126.75,95.21 126.11,95.12 125.54,95 C124.97,94.88 124.48,94.69 124.07,94.44 C123.66,94.19 123.34,93.87 123.11,93.46 C122.88,93.06 122.73,92.55 122.68,91.93 C122.63,91.35 122.71,90.81 122.93,90.32 C123.15,89.83 123.46,89.4 123.88,89.05 C124.3,88.7 124.8,88.41 125.39,88.18 C126.014186,87.9493919 126.666832,87.8047333 127.33,87.75 C128.24,87.67 129,87.69 129.62,87.82 C130.24,87.95 130.76,88.15 131.17,88.42 C131.58,88.69 131.91,89.03 132.16,89.42 C132.41,89.81 132.62,90.23 132.78,90.69 L131.45,91.09 C131.28,90.71 131.09,90.38 130.89,90.09 C130.68,89.81 130.43,89.58 130.14,89.41 C129.85,89.24 129.5,89.12 129.08,89.05 C128.66,88.98 128.14,88.98 127.53,89.03 C126.85,89.09 126.28,89.2 125.83,89.37 C125.38,89.54 125.02,89.75 124.76,89.99 C124.5,90.24 124.32,90.51 124.22,90.81 C124.12,91.11 124.09,91.42 124.12,91.72 C124.15,92.03 124.21,92.3 124.3,92.54 C124.39,92.78 124.55,92.99 124.77,93.16 C124.99,93.33 125.29,93.47 125.67,93.57 C126.05,93.67 126.54,93.75 127.15,93.8 L129.2,93.96 C130.61,94.08 131.68,94.4 132.41,94.93 C133.15,95.46 133.57,96.33 133.67,97.55 C133.71,98.06 133.65,98.56 133.47,99.04 C133.3,99.52 133.02,99.95 132.63,100.32 C132.24,100.69 131.74,101 131.12,101.25 C130.5,101.5 129.79,101.66 128.97,101.74 C128.17,101.81 127.42,101.8 126.73,101.7 C126.04,101.6 125.44,101.42 124.91,101.13 C124.39,100.85 123.95,100.47 123.6,99.98 C123.25,99.49 123,98.89 122.87,98.16 L124.33,98.03 L124.32,98.05 Z M147.68,96.21 C147.57,97.37 147.11,98.35 146.28,99.15 C145.45,99.95 144.22,100.42 142.58,100.56 C140.68,100.73 139.15,100.24 137.99,99.11 C136.83,97.98 136.16,96.35 135.97,94.21 C135.87,93.05 135.93,92.01 136.15,91.09 C136.37,90.17 136.72,89.39 137.21,88.74 C137.7,88.09 138.29,87.57 138.99,87.2 C139.69,86.83 140.48,86.61 141.35,86.53 C142.38,86.44 143.26,86.53 144.01,86.8 C144.76,87.07 145.38,87.47 145.89,88.01 C146.39,88.54 146.78,89.19 147.05,89.96 C147.33,90.73 147.5,91.57 147.58,92.47 L147.66,93.42 L137.5,94.31 C137.56,95.06 137.72,95.76 137.97,96.4 C138.21,97.04 138.55,97.59 138.97,98.04 C139.39,98.49 139.89,98.84 140.48,99.07 C141.07,99.3 141.73,99.39 142.47,99.32 C143.14,99.26 143.69,99.15 144.15,98.98 C144.6,98.81 144.97,98.59 145.25,98.33 C145.54,98.06 145.76,97.76 145.91,97.43 C146.06,97.1 146.17,96.73 146.24,96.33 L147.68,96.2 L147.68,96.21 Z M146.02,92.27 C145.968267,91.6058964 145.833896,90.9508394 145.62,90.32 C145.41,89.74 145.13,89.24 144.77,88.83 C144.41,88.42 143.95,88.12 143.4,87.93 C142.85,87.74 142.2,87.67 141.47,87.74 C140.19,87.85 139.2,88.34 138.5,89.21 C137.8,90.08 137.45,91.35 137.44,93.02 L146.03,92.27 L146.02,92.27 Z M150.47,86.15 L151.96,86.02 L152.15,88.17 C152.61,87.37 153.17,86.74 153.82,86.27 C154.47,85.8 155.18,85.53 155.95,85.46 C156.14,85.44 156.31,85.43 156.48,85.43 C156.64,85.43 156.82,85.43 157.01,85.45 L156.96,86.88 C156.65,86.86 156.36,86.85 156.11,86.88 C155.66,86.92 155.22,87.04 154.77,87.24 C154.32,87.44 153.91,87.76 153.53,88.19 C153.17,88.57 152.88,89.01 152.66,89.52 C152.45,90.03 152.37,90.62 152.43,91.28 L153.13,99.23 L151.64,99.36 L150.48,86.15 L150.47,86.15 Z M170.53,94.21 C170.42,95.37 169.96,96.35 169.13,97.15 C168.3,97.95 167.07,98.42 165.43,98.56 C163.53,98.73 162,98.24 160.85,97.11 C159.69,95.98 159.02,94.35 158.83,92.21 C158.73,91.05 158.79,90.01 159.01,89.09 C159.23,88.17 159.58,87.39 160.07,86.74 C160.56,86.09 161.15,85.57 161.85,85.2 C162.55,84.83 163.34,84.6 164.21,84.53 C165.24,84.44 166.12,84.53 166.87,84.8 C167.62,85.07 168.24,85.47 168.75,86.01 C169.25,86.54 169.64,87.19 169.92,87.96 C170.19,88.73 170.37,89.57 170.45,90.47 L170.53,91.42 L160.37,92.31 C160.43,93.06 160.59,93.76 160.84,94.4 C161.08,95.04 161.42,95.59 161.84,96.04 C162.26,96.49 162.76,96.84 163.35,97.07 C163.94,97.3 164.6,97.39 165.34,97.32 C166.01,97.26 166.56,97.15 167.02,96.98 C167.47,96.81 167.84,96.59 168.12,96.33 C168.41,96.06 168.63,95.76 168.78,95.43 C168.93,95.1 169.04,94.73 169.11,94.33 L170.55,94.2 L170.53,94.21 Z M168.87,90.27 C168.818267,89.6058964 168.683896,88.9508394 168.47,88.32 C168.26,87.74 167.98,87.24 167.62,86.83 C167.26,86.42 166.8,86.12 166.25,85.93 C165.7,85.74 165.05,85.67 164.32,85.74 C163.04,85.85 162.05,86.34 161.35,87.22 C160.65,88.09 160.3,89.36 160.29,91.03 L168.88,90.28 L168.87,90.27 Z M59.28,133.52 L58.39,136.62 L53.77,137.02 L59.65,118.83 L63.78,118.47 L72.7,135.36 L68.11,135.76 L66.67,132.86 L59.29,133.51 L59.28,133.52 Z M62.14,123.71 L60.39,129.7 L64.9,129.31 L62.14,123.71 L62.14,123.71 Z M78.9,131.26 L79.21,134.8 L74.88,135.18 L73.35,117.74 L77.68,117.36 L78.37,125.28 L84.63,116.75 L89.76,116.3 L83.79,124.52 L91.85,133.69 L86.57,134.15 L81.14,128.17 L78.9,131.26 L78.9,131.26 Z M101.11,119.22 L102.3,132.78 L97.97,133.16 L96.78,119.59 L91.22,120.08 L90.88,116.21 L106.32,114.86 L106.66,118.73 L101.12,119.21 L101.11,119.22 Z M114.42,131.72 L110.09,132.1 L108.56,114.66 L112.89,114.28 L114.42,131.72 Z M135.13,121.12 C135.58,126.2 131.95,130.55 126.67,131.01 C121.41,131.47 117.09,127.82 116.64,122.74 C116.19,117.66 119.82,113.31 125.08,112.85 C130.36,112.39 134.69,116.04 135.13,121.12 L135.13,121.12 Z M130.72,121.51 C130.48,118.77 128.25,116.63 125.43,116.88 C122.61,117.13 120.79,119.61 121.03,122.36 C121.27,125.11 123.5,127.24 126.32,126.99 C129.14,126.74 130.96,124.26 130.72,121.51 Z M154.89,128.18 L151.53,128.47 L142.33,119.64 L143.17,129.21 L138.84,129.59 L137.31,112.15 L140.62,111.86 L149.89,120.94 L149.03,111.12 L153.36,110.74 L154.89,128.18 Z M171.77,114.59 L167.41,114.97 C167.06,113.68 166.17,112.86 164.4,113.01 C162.91,113.14 161.97,113.84 162.07,114.97 C162.15,115.92 162.88,116.27 164.21,116.44 L166.7,116.79 C169.94,117.2 172.13,118.31 172.39,121.31 C172.69,124.8 170.01,127.23 165.66,127.61 C161.74,127.95 158.04,126.42 157.25,122.14 L161.58,121.76 C162,123.27 163.41,124.08 165.46,123.9 C167.08,123.76 167.87,123.1 167.79,122.15 C167.74,121.56 167.33,120.98 165.81,120.82 L162.88,120.43 C159.38,119.99 157.62,118.51 157.38,115.74 C157.07,112.25 159.7,109.8 163.81,109.44 C166.63,109.19 170.93,109.93 171.78,114.58 L171.77,114.59 Z M48.84,163.55 L47.95,166.65 L43.33,167.05 L49.21,148.86 L53.34,148.5 L62.26,165.39 L57.67,165.79 L56.23,162.89 L48.85,163.54 L48.84,163.55 Z M51.7,153.74 L49.95,159.73 L54.47,159.33 L51.7,153.73 L51.7,153.74 Z M80.49,163.8 L77.13,164.09 L67.93,155.26 L68.77,164.82 L64.44,165.2 L62.91,147.76 L66.22,147.47 L75.49,156.55 L74.63,146.73 L78.96,146.35 L80.49,163.79 L80.49,163.8 Z M101.65,161.95 L98.42,162.23 L98.05,160.14 C96.93,161.79 95.19,162.87 92.75,163.08 C87.29,163.56 83.13,159.99 82.69,154.99 C82.21,149.55 85.88,145.38 91.21,144.92 C95.47,144.55 99.37,146.63 100.48,150.72 L95.94,151.12 C94.99,149.16 93.2,148.75 91.64,148.89 C88.67,149.15 86.8,151.43 87.07,154.51 C87.31,157.25 89.48,159.31 92.58,159.04 C94.61,158.86 96.06,157.73 96.76,155.99 L91.76,156.38 L91.46,152.97 L100.79,152.15 L101.65,161.94 L101.65,161.95 Z M108.81,150.75 L116.53,150.08 L116.85,153.77 L109.13,154.44 L109.4,157.47 L118.25,156.7 L118.58,160.47 L105.4,161.62 L103.87,144.18 L117.05,143.03 L117.38,146.8 L108.53,147.57 L108.81,150.75 L108.81,150.75 Z M136.31,154.03 C136.56,156.93 134.4,159.08 130.48,159.42 L121.35,160.22 L119.82,142.78 L128.44,142.03 C132.21,141.7 134.6,143.3 134.85,146.15 C134.99,147.77 134.24,149.51 132.75,150.18 C134.92,150.46 136.15,152.16 136.32,154.03 L136.31,154.03 Z M124.78,149.51 L128.4,149.19 C130.02,149.05 130.85,148.23 130.75,147.1 C130.65,146 129.76,145.48 128.09,145.63 L124.47,145.95 L124.78,149.51 Z M129.6,155.89 C131.37,155.74 132.1,154.87 132.01,153.84 C131.91,152.76 130.97,152.3 129.38,152.44 L125.07,152.82 L125.37,156.26 L129.6,155.89 L129.6,155.89 Z M156.26,148.39 C156.7,153.47 153.08,157.82 147.8,158.28 C142.54,158.74 138.22,155.09 137.77,150.01 C137.32,144.93 140.95,140.59 146.21,140.13 C151.49,139.67 155.82,143.32 156.26,148.4 L156.26,148.39 Z M151.85,148.77 C151.61,146.03 149.38,143.89 146.56,144.14 C143.74,144.39 141.92,146.87 142.16,149.62 C142.4,152.36 144.63,154.5 147.45,154.25 C150.27,154 152.09,151.52 151.86,148.77 L151.85,148.77 Z M166.46,142.61 L167.65,156.18 L163.32,156.56 L162.13,142.99 L156.57,143.48 L156.23,139.61 L171.67,138.26 L172.01,142.13 L166.47,142.61 L166.46,142.61 Z M178.86,144.63 L186.58,143.96 L186.9,147.65 L179.18,148.32 L179.44,151.35 L188.29,150.58 L188.62,154.35 L175.44,155.5 L173.91,138.06 L187.09,136.91 L187.42,140.68 L178.57,141.45 L178.85,144.63 L178.86,144.63 Z" id="Shape" fill="#FFFFFF"></path>
        </g>
    </g>
</svg>
