<?xml version="1.0" encoding="UTF-8"?>
<svg width="120px" height="120px" viewBox="0 0 120 120" version="1.1" xmlns="http://www.w3.org/2000/svg" xmlns:xlink="http://www.w3.org/1999/xlink">
    <title>Shape</title>
    <g id="Page-1" stroke="none" stroke-width="1" fill="none" fill-rule="evenodd">
        <g id="designvielfalt" transform="translate(-136.000000, -147.000000)" fill="#00A65C" fill-rule="nonzero">
            <g id="Group">
                <path d="M155.89,314.74 L77.17,236.02 L89.98,223.22 L168.7,301.94 L155.9,314.74 L155.89,314.74 Z M80.43,236.01 L155.89,311.47 L165.43,301.93 L89.97,226.47 L80.43,236.01 L80.43,236.01 Z" id="Shape"></path>
                <path d="M155.89,292.44 L77.17,213.72 L89.98,200.92 L168.7,279.64 L155.9,292.44 L155.89,292.44 Z M80.43,213.72 L155.89,289.18 L165.43,279.64 L89.97,204.18 L80.43,213.72 L80.43,213.72 Z" id="Shape"></path>
                <path d="M155.89,270.1 L77.17,191.38 L89.98,178.58 L168.7,257.3 L155.9,270.1 L155.89,270.1 Z M80.43,191.38 L155.89,266.84 L165.43,257.3 L89.97,181.84 L80.43,191.38 L80.43,191.38 Z" id="Shape"></path>
                <path d="M155.89,247.8 L77.17,169.08 L89.98,156.28 L168.7,235 L155.9,247.8 L155.89,247.8 Z M80.43,169.08 L155.89,244.54 L165.43,235 L89.97,159.54 L80.43,169.08 L80.43,169.08 Z" id="Shape"></path>
                <path d="M155.89,225.47 L77.17,146.75 L89.98,133.95 L168.7,212.67 L155.9,225.47 L155.89,225.47 Z M80.43,146.75 L155.89,222.21 L165.43,212.67 L89.97,137.21 L80.43,146.75 L80.43,146.75 Z" id="Shape"></path>
                <path d="M155.89,203.17 L77.17,124.45 L89.98,111.65 L168.7,190.37 L155.9,203.17 L155.89,203.17 Z M80.43,124.45 L155.89,199.91 L165.43,190.37 L89.97,114.91 L80.43,124.45 L80.43,124.45 Z" id="Shape"></path>
                <path d="M155.89,180.83 L77.17,102.11 L89.98,89.31 L168.7,168.03 L155.9,180.83 L155.89,180.83 Z M80.43,102.11 L155.89,177.57 L165.43,168.03 L89.97,92.57 L80.43,102.11 L80.43,102.11 Z" id="Shape"></path>
                <path d="M155.89,158.53 L77.17,79.81 L89.98,67.01 L168.7,145.73 L155.9,158.53 L155.89,158.53 Z M80.43,79.81 L155.89,155.27 L165.43,145.73 L89.97,70.27 L80.43,79.81 L80.43,79.81 Z" id="Shape"></path>
                <path d="M167.4,169.71 L154.6,156.91 L233.32,78.19 L246.12,90.99 L167.4,169.71 L167.4,169.71 Z M157.86,156.9 L167.4,166.44 L242.86,90.98 L233.32,81.44 L157.86,156.9 L157.86,156.9 Z" id="Shape"></path>
                <path d="M167.4,192 L154.6,179.2 L233.32,100.48 L246.12,113.28 L167.4,192 Z M157.86,179.2 L167.4,188.74 L242.86,113.28 L233.32,103.74 L157.86,179.2 Z" id="Shape"></path>
                <path d="M167.4,214.34 L154.6,201.54 L233.32,122.82 L246.12,135.62 L167.4,214.34 Z M157.86,201.54 L167.4,211.08 L242.86,135.62 L233.32,126.08 L157.86,201.54 L157.86,201.54 Z" id="Shape"></path>
                <path d="M167.4,236.64 L154.6,223.84 L233.32,145.12 L246.12,157.92 L167.4,236.64 Z M157.86,223.83 L167.4,233.37 L242.86,157.91 L233.32,148.37 L157.86,223.83 L157.86,223.83 Z" id="Shape"></path>
                <path d="M167.4,258.98 L154.6,246.18 L233.32,167.46 L246.12,180.26 L167.4,258.98 Z M157.86,246.17 L167.4,255.71 L242.86,180.25 L233.32,170.71 L157.86,246.17 L157.86,246.17 Z" id="Shape"></path>
                <path d="M167.4,281.27 L154.6,268.47 L233.32,189.75 L246.12,202.55 L167.4,281.27 Z M157.86,268.47 L167.4,278.01 L242.86,202.55 L233.32,193.01 L157.86,268.47 L157.86,268.47 Z" id="Shape"></path>
                <path d="M167.4,303.61 L154.6,290.81 L233.32,212.09 L246.12,224.89 L167.4,303.61 Z M157.86,290.81 L167.4,300.35 L242.86,224.89 L233.32,215.35 L157.86,290.81 L157.86,290.81 Z" id="Shape"></path>
                <path d="M167.4,325.91 L154.6,313.11 L233.32,234.39 L246.12,247.19 L167.4,325.91 Z M157.86,313.11 L167.4,322.65 L242.86,247.19 L233.32,237.65 L157.86,313.11 L157.86,313.11 Z" id="Shape"></path>
                <path d="M167.4,147.33 L154.6,134.53 L233.32,55.81 L246.12,68.61 L167.4,147.33 L167.4,147.33 Z M157.86,134.53 L167.4,144.07 L242.86,68.61 L233.32,59.07 L157.86,134.53 Z" id="Shape"></path>
                <path d="M310.48,314.74 L231.76,236.02 L244.56,223.22 L323.28,301.94 L310.48,314.74 Z M235.02,236.01 L310.48,311.47 L320.02,301.93 L244.56,226.47 L235.02,236.01 L235.02,236.01 Z" id="Shape"></path>
                <path d="M310.48,292.44 L231.76,213.72 L244.56,200.92 L323.28,279.64 L310.48,292.44 Z M235.02,213.72 L310.48,289.18 L320.02,279.64 L244.56,204.18 L235.02,213.72 L235.02,213.72 Z" id="Shape"></path>
                <path d="M310.48,270.1 L231.76,191.38 L244.56,178.58 L323.28,257.3 L310.48,270.1 Z M235.02,191.38 L310.48,266.84 L320.02,257.3 L244.56,181.84 L235.02,191.38 L235.02,191.38 Z" id="Shape"></path>
                <path d="M310.48,247.8 L231.76,169.08 L244.56,156.28 L323.28,235 L310.48,247.8 Z M235.02,169.08 L310.48,244.54 L320.02,235 L244.56,159.54 L235.02,169.08 L235.02,169.08 Z" id="Shape"></path>
                <path d="M310.48,225.47 L231.76,146.75 L244.56,133.95 L323.28,212.67 L310.48,225.47 Z M235.02,146.75 L310.48,222.21 L320.02,212.67 L244.56,137.21 L235.02,146.75 L235.02,146.75 Z" id="Shape"></path>
                <path d="M310.48,203.17 L231.76,124.45 L244.56,111.65 L323.28,190.37 L310.48,203.17 L310.48,203.17 Z M235.02,124.45 L310.48,199.91 L320.02,190.37 L244.56,114.91 L235.02,124.45 L235.02,124.45 Z" id="Shape"></path>
                <path d="M310.48,180.83 L231.76,102.11 L244.56,89.31 L323.28,168.03 L310.48,180.83 L310.48,180.83 Z M235.02,102.11 L310.48,177.57 L320.02,168.03 L244.56,92.57 L235.02,102.11 L235.02,102.11 Z" id="Shape"></path>
                <path d="M310.48,158.53 L231.76,79.81 L244.56,67.01 L323.28,145.73 L310.48,158.53 L310.48,158.53 Z M235.02,79.81 L310.48,155.27 L320.02,145.73 L244.56,70.27 L235.02,79.81 L235.02,79.81 Z" id="Shape"></path>
                <path d="M155.89,337.07 L77.17,258.35 L89.98,245.55 L168.7,324.27 L155.9,337.07 L155.89,337.07 Z M80.43,258.35 L155.89,333.81 L165.43,324.27 L89.97,248.81 L80.43,258.35 L80.43,258.35 Z" id="Shape"></path>
                <path d="M167.4,348.25 L154.6,335.45 L233.32,256.73 L246.12,269.53 L167.4,348.25 Z M157.86,335.44 L167.4,344.98 L242.86,269.52 L233.32,259.98 L157.86,335.44 Z" id="Shape"></path>
                <path d="M310.48,337.07 L231.76,258.35 L244.56,245.55 L323.28,324.27 L310.48,337.07 Z M235.02,258.35 L310.48,333.81 L320.02,324.27 L244.56,248.81 L235.02,258.35 L235.02,258.35 Z" id="Shape"></path>
            </g>
            <path d="M256,267 L136,267 L136,147 L256,147 L256,267 Z M138.31,264.69 L253.7,264.69 L253.7,149.31 L138.31,149.31 L138.31,264.69 Z" id="Shape"></path>
        </g>
    </g>
</svg>
