<svg xmlns="http://www.w3.org/2000/svg" viewBox="0 0 614.68 359.96"><g data-name="Ebene 2"><g opacity=".6" data-name="Ebene 1"><path fill="none" stroke="#473d38" stroke-miterlimit="10" stroke-width=".25" d="M438.63.13h175.93v357.94H438.63z"/><path fill="none" stroke="#473d38" stroke-miterlimit="10" stroke-width=".25" d="M451.19 11.48h150.52v346.41H451.19zM605.48 46.93h3.64v16.82h-3.64z"/><path fill="#fff" d="M585.29 48.44v6.71h20.83v-6.71h-20.83z"/><path fill="#473d38" opacity=".1" d="M585.29 48.44v6.71h20.83v-6.71h-20.83z"/><path fill="none" stroke="#473d38" stroke-miterlimit="10" stroke-width=".25" d="M585.29 48.44h0v6.71h20.83v-6.71h-20.83zM605.48 303.67h3.64v16.82h-3.64z"/><path fill="#fff" d="M585.29 305.17v6.71h20.83v-6.71h-20.83z"/><path fill="#473d38" opacity=".1" d="M585.29 305.17v6.71h20.83v-6.71h-20.83z"/><path fill="none" stroke="#473d38" stroke-miterlimit="10" stroke-width=".25" d="M585.29 305.17h0v6.71h20.83v-6.71h-20.83zM451.89 169.78h0v9.64h28.75v-9.64h-28.75z"/><path fill="#fff" d="M469.94 174.05h21.78v1.66h-21.78z"/><path fill="#fff" d="M469.94 174.05h21.78v1.66h-21.78z"/><path fill="#473d38" opacity=".1" d="M469.94 174.05h21.78v1.66h-21.78z"/><path fill="none" stroke="#473d38" stroke-miterlimit="10" stroke-width=".25" d="M469.94 174.06h21.78v1.65h-21.78zM.13.13h177.39v359.41H.13z"/><path fill="none" stroke="#473d38" stroke-miterlimit="10" stroke-width=".25" d="M12.76 11.84h152.12v347.7H12.76zM30.61 29.61H147M30.41 246.62h116.25M30.27 228.8h116.25M30.89 142.41h116.25M30.47 124.59h116.24m.23 217.33H30.7M147.11 11.78v347.76M30.54 11.91v347.63"/><path d="M19.44 178.55a1.94 1.94 0 1 1 1.94 1.93 1.93 1.93 0 0 1-1.94-1.93zm-3 0a5 5 0 1 1 4.95 4.93 4.93 4.93 0 0 1-4.96-4.93zm0 16.72a5.08 5.08 0 1 1 5.08 5 5.06 5.06 0 0 1-5.09-5zm6.2-.15v2.29a1.19 1.19 0 1 1-2.37 0V195a1.82 1.82 0 1 1 3.07-1.33 1.8 1.8 0 0 1-.71 1.45z" fill="none" stroke="#473d38" stroke-miterlimit="10" stroke-width=".25"/><path d="M21.56 179.89h-.22a1.43 1.43 0 0 1 0-2.86h23.8v2.81z" fill="#fff"/><path d="M21.56 179.89h-.22a1.43 1.43 0 0 1 0-2.86h23.8v2.81z" fill="#473d38" opacity=".1"/><path d="M21.56 179.89h-.22a1.43 1.43 0 0 1 0-2.86h23.8v2.81zM166.4 39.15h2.28v10.9h-2.28zm0 266.84h2.28v10.9h-2.28zM219.38.13h177.39v359.41H219.38z" fill="none" stroke="#473d38" stroke-miterlimit="10" stroke-width=".25"/><path fill="none" stroke="#473d38" stroke-miterlimit="10" stroke-width=".25" d="M384.61 359.96V10.83H231.54v349.13M386.1 38.69h2.29V49.6h-2.29zm0 266.85h2.29v10.9h-2.29z"/><path d="M258.39 318.18h34.35v-34.5h-34.35zm-2.39 2.36h39v-39.23h-39zm2.35-59.46h34.35v-34.51h-34.31zm-2.35 2.35h39v-39.22h-39zm2.35-59.27h34.35v-34.5h-34.31zm-2.35 2.37h39v-39.22h-39zm2.39-59.53h34.34v-34.54h-34.34zm-2.34 2.35h39V110.1h-39zM258.39 90h34.34V55.44h-34.34zm-2.34 2.35h39V53.08h-39zM238.7 178.1a1.94 1.94 0 1 1 1.93 1.92 1.92 1.92 0 0 1-1.93-1.92zm-3 0a4.95 4.95 0 1 1 4.94 4.92 4.94 4.94 0 0 1-4.95-4.92zm0 16.72a5.08 5.08 0 1 1 5.07 5.05 5.06 5.06 0 0 1-5.08-5.05zm6.2-.15V197a1.19 1.19 0 1 1-2.37 0v-2.39a1.8 1.8 0 0 1-.58-1.33 1.82 1.82 0 1 1 2.95 1.43z" fill="none" stroke="#473d38" stroke-miterlimit="10" stroke-width=".25"/><path d="M240.81 179.43a.78.78 0 0 1-.22 0 1.43 1.43 0 0 1 0-2.86h23.8v2.81z" fill="#fff"/><path d="M240.81 179.43a.78.78 0 0 1-.22 0 1.43 1.43 0 0 1 0-2.86h23.8v2.81z" fill="#473d38" opacity=".1"/><path d="M240.81 179.43a.78.78 0 0 1-.22 0 1.43 1.43 0 0 1 0-2.86h23.8v2.81z" fill="none" stroke="#473d38" stroke-miterlimit="10" stroke-width=".25"/></g></g></svg>
