
<svg width="120px" height="120px" viewBox="0 0 120 120" version="1.1" xmlns="http://www.w3.org/2000/svg" xmlns:xlink="http://www.w3.org/1999/xlink">
    <g id="Page-1" stroke="none" stroke-width="1" fill="none" fill-rule="evenodd">
        <g id="fussbodenheizung" fill="#00A65C" fill-rule="nonzero">
            <path d="M120,120 L0,120 L0,0 L120,0 L120,120 Z M2.69,117.31 L117.31,117.31 L117.31,2.69 L2.69,2.69 L2.69,117.31 Z" id="Shape"></path>
            <path d="M103.47,112.15 C99.3,112.15 95.91,108.76 95.91,104.59 L95.91,83.03 C95.91,80.35 93.73,78.17 91.05,78.17 C88.37,78.17 86.19,80.35 86.19,83.03 L86.19,104.59 C86.19,108.76 82.8,112.15 78.63,112.15 C74.46,112.15 71.07,108.76 71.07,104.59 L71.07,83.03 C71.07,80.35 68.89,78.17 66.21,78.17 C63.53,78.17 61.35,80.35 61.35,83.03 L61.35,104.59 C61.35,108.76 57.96,112.15 53.79,112.15 C49.62,112.15 46.23,108.76 46.23,104.59 L46.23,83.03 C46.23,80.35 44.05,78.17 41.37,78.17 C38.69,78.17 36.51,80.35 36.51,83.03 L36.51,104.59 C36.51,108.76 33.12,112.15 28.95,112.15 C24.78,112.15 21.39,108.76 21.39,104.59 L21.39,83.03 C21.39,80.35 19.21,78.17 16.53,78.17 C13.85,78.17 11.67,80.35 11.67,83.03 L11.67,110.8 L8.98,110.8 L8.98,83.03 C8.98,78.86 12.37,75.47 16.54,75.47 C20.71,75.47 24.1,78.86 24.1,83.03 L24.1,104.59 C24.1,107.27 26.28,109.45 28.96,109.45 C31.64,109.45 33.82,107.27 33.82,104.59 L33.82,83.03 C33.82,78.86 37.21,75.47 41.38,75.47 C45.55,75.47 48.94,78.86 48.94,83.03 L48.94,104.59 C48.94,107.27 51.12,109.45 53.8,109.45 C56.48,109.45 58.66,107.27 58.66,104.59 L58.66,83.03 C58.66,78.86 62.05,75.47 66.22,75.47 C70.39,75.47 73.78,78.86 73.78,83.03 L73.78,104.59 C73.78,107.27 75.96,109.45 78.64,109.45 C81.32,109.45 83.5,107.27 83.5,104.59 L83.5,83.03 C83.5,78.86 86.89,75.47 91.06,75.47 C95.23,75.47 98.62,78.86 98.62,83.03 L98.62,104.59 C98.62,107.27 100.8,109.45 103.48,109.45 C106.16,109.45 108.34,107.27 108.34,104.59 L108.34,76.82 L111.03,76.82 L111.03,104.59 C111.03,108.76 107.64,112.15 103.47,112.15 Z" id="Path"></path>
            <rect id="Rectangle" x="1.35" y="67.63" width="117.31" height="2.69"></rect>
            <rect id="Rectangle" x="1.35" y="60.9" width="117.31" height="2.69"></rect>
            <path d="M14.55,53.27 L11.86,53.27 C11.86,50.61 13.11,49.21 14.11,48.08 C15.02,47.06 15.68,46.31 15.68,44.68 C15.68,43.05 15.02,42.3 14.11,41.28 C13.11,40.15 11.86,38.75 11.86,36.09 C11.86,33.43 13.11,32.03 14.11,30.9 C15.02,29.88 15.68,29.13 15.68,27.5 C15.68,25.87 15.02,25.12 14.11,24.1 C13.11,22.97 11.86,21.57 11.86,18.91 C11.86,16.25 13.11,14.85 14.11,13.72 C15.02,12.7 15.68,11.95 15.68,10.32 L18.37,10.32 C18.37,12.98 17.12,14.38 16.12,15.51 C15.21,16.53 14.55,17.28 14.55,18.91 C14.55,20.54 15.21,21.29 16.12,22.31 C17.12,23.44 18.37,24.84 18.37,27.5 C18.37,30.16 17.12,31.56 16.12,32.69 C15.21,33.71 14.55,34.46 14.55,36.09 C14.55,37.72 15.21,38.47 16.12,39.49 C17.12,40.62 18.37,42.02 18.37,44.68 C18.37,47.34 17.12,48.74 16.12,49.87 C15.21,50.89 14.55,51.64 14.55,53.27 Z" id="Path"></path>
            <path d="M102.71,53.27 L100.02,53.27 C100.02,50.61 101.27,49.21 102.27,48.08 C103.18,47.06 103.84,46.31 103.84,44.68 C103.84,43.05 103.18,42.3 102.27,41.28 C101.27,40.15 100.02,38.75 100.02,36.09 C100.02,33.43 101.27,32.03 102.27,30.9 C103.18,29.88 103.84,29.13 103.84,27.5 C103.84,25.87 103.18,25.12 102.27,24.1 C101.27,22.97 100.02,21.57 100.02,18.91 C100.02,16.25 101.27,14.85 102.27,13.72 C103.18,12.7 103.84,11.95 103.84,10.32 L106.53,10.32 C106.53,12.98 105.28,14.38 104.28,15.51 C103.37,16.53 102.71,17.28 102.71,18.91 C102.71,20.54 103.37,21.29 104.28,22.31 C105.28,23.44 106.53,24.84 106.53,27.5 C106.53,30.16 105.28,31.56 104.28,32.69 C103.37,33.71 102.71,34.46 102.71,36.09 C102.71,37.72 103.37,38.47 104.28,39.49 C105.28,40.62 106.53,42.02 106.53,44.68 C106.53,47.34 105.28,48.74 104.28,49.87 C103.37,50.89 102.71,51.64 102.71,53.27 Z" id="Path"></path>
            <path d="M85.08,53.27 L82.39,53.27 C82.39,50.61 83.64,49.21 84.64,48.08 C85.55,47.06 86.21,46.31 86.21,44.68 C86.21,43.05 85.55,42.3 84.64,41.28 C83.64,40.15 82.39,38.75 82.39,36.09 C82.39,33.43 83.64,32.03 84.64,30.9 C85.55,29.88 86.21,29.13 86.21,27.5 C86.21,25.87 85.55,25.12 84.64,24.1 C83.64,22.97 82.39,21.57 82.39,18.91 C82.39,16.25 83.64,14.85 84.64,13.72 C85.55,12.7 86.21,11.95 86.21,10.32 L88.9,10.32 C88.9,12.98 87.65,14.38 86.65,15.51 C85.74,16.53 85.08,17.28 85.08,18.91 C85.08,20.54 85.74,21.29 86.65,22.31 C87.65,23.44 88.9,24.84 88.9,27.5 C88.9,30.16 87.65,31.56 86.65,32.69 C85.74,33.71 85.08,34.46 85.08,36.09 C85.08,37.72 85.74,38.47 86.65,39.49 C87.65,40.62 88.9,42.02 88.9,44.68 C88.9,47.34 87.65,48.74 86.65,49.87 C85.74,50.89 85.08,51.64 85.08,53.27 Z" id="Path"></path>
            <path d="M67.45,53.27 L64.76,53.27 C64.76,50.61 66.01,49.21 67.01,48.08 C67.92,47.06 68.58,46.31 68.58,44.68 C68.58,43.05 67.92,42.3 67.01,41.28 C66.01,40.15 64.76,38.75 64.76,36.09 C64.76,33.43 66.01,32.03 67.01,30.9 C67.92,29.88 68.58,29.13 68.58,27.5 C68.58,25.87 67.92,25.12 67.01,24.1 C66.01,22.97 64.76,21.57 64.76,18.91 C64.76,16.25 66.01,14.85 67.01,13.72 C67.92,12.7 68.58,11.95 68.58,10.32 L71.27,10.32 C71.27,12.98 70.02,14.38 69.02,15.51 C68.11,16.53 67.45,17.28 67.45,18.91 C67.45,20.54 68.11,21.29 69.02,22.31 C70.02,23.44 71.27,24.84 71.27,27.5 C71.27,30.16 70.02,31.56 69.02,32.69 C68.11,33.71 67.45,34.46 67.45,36.09 C67.45,37.72 68.11,38.47 69.02,39.49 C70.02,40.62 71.27,42.02 71.27,44.68 C71.27,47.34 70.02,48.74 69.02,49.87 C68.11,50.89 67.45,51.64 67.45,53.27 Z" id="Path"></path>
            <path d="M49.81,53.27 L47.12,53.27 C47.12,50.61 48.37,49.21 49.37,48.08 C50.28,47.06 50.94,46.31 50.94,44.68 C50.94,43.05 50.28,42.3 49.37,41.28 C48.37,40.15 47.12,38.75 47.12,36.09 C47.12,33.43 48.37,32.03 49.37,30.9 C50.28,29.88 50.94,29.13 50.94,27.5 C50.94,25.87 50.28,25.12 49.37,24.1 C48.37,22.97 47.12,21.57 47.12,18.91 C47.12,16.25 48.37,14.85 49.37,13.72 C50.28,12.7 50.94,11.95 50.94,10.32 L53.63,10.32 C53.63,12.98 52.38,14.38 51.38,15.51 C50.47,16.53 49.81,17.28 49.81,18.91 C49.81,20.54 50.47,21.29 51.38,22.31 C52.38,23.44 53.63,24.84 53.63,27.5 C53.63,30.16 52.38,31.56 51.38,32.69 C50.47,33.71 49.81,34.46 49.81,36.09 C49.81,37.72 50.47,38.47 51.38,39.49 C52.38,40.62 53.63,42.02 53.63,44.68 C53.63,47.34 52.38,48.74 51.38,49.87 C50.47,50.89 49.81,51.64 49.81,53.27 Z" id="Path"></path>
            <path d="M32.18,53.27 L29.49,53.27 C29.49,50.61 30.74,49.21 31.74,48.08 C32.65,47.06 33.31,46.31 33.31,44.68 C33.31,43.05 32.65,42.3 31.74,41.28 C30.74,40.15 29.49,38.75 29.49,36.09 C29.49,33.43 30.74,32.03 31.74,30.9 C32.65,29.88 33.31,29.13 33.31,27.5 C33.31,25.87 32.65,25.12 31.74,24.1 C30.74,22.97 29.49,21.57 29.49,18.91 C29.49,16.25 30.74,14.85 31.74,13.72 C32.65,12.7 33.31,11.95 33.31,10.32 L36,10.32 C36,12.98 34.75,14.38 33.75,15.51 C32.84,16.53 32.18,17.28 32.18,18.91 C32.18,20.54 32.84,21.29 33.75,22.31 C34.75,23.44 36,24.84 36,27.5 C36,30.16 34.75,31.56 33.75,32.69 C32.84,33.71 32.18,34.46 32.18,36.09 C32.18,37.72 32.84,38.47 33.75,39.49 C34.75,40.62 36,42.02 36,44.68 C36,47.34 34.75,48.74 33.75,49.87 C32.84,50.89 32.18,51.64 32.18,53.27 L32.18,53.27 Z" id="Path"></path>
        </g>
    </g>
</svg>
