<?xml version="1.0" encoding="UTF-8"?>
<svg width="45px" height="45px" viewBox="0 0 45 45" version="1.1" xmlns="http://www.w3.org/2000/svg" xmlns:xlink="http://www.w3.org/1999/xlink">
    <title>Slice</title>
    <g id="Page-1" stroke="none" stroke-width="1" fill="none" fill-rule="evenodd">
        <g id="landhausdiele" transform="translate(-26.000000, 0.000000)" fill="#473D38" fill-rule="nonzero">
            <g id="Group">
                <path d="M32.92,9.69 L0,9.69 L0,0 L32.92,0 L32.92,9.69 Z M0.86,8.83 L32.05,8.83 L32.05,0.86 L0.86,0.86 L0.86,8.82 L0.86,8.83 Z" id="Shape"></path>
                <path d="M64.98,9.69 L32.06,9.69 L32.06,0 L64.98,0 L64.98,9.69 Z M32.92,8.83 L64.11,8.83 L64.11,0.86 L32.92,0.86 L32.92,8.82 L32.92,8.83 Z" id="Shape"></path>
                <path d="M97.03,9.69 L64.11,9.69 L64.11,0 L97.03,0 L97.03,9.69 Z M64.98,8.83 L96.17,8.83 L96.17,0.86 L64.98,0.86 L64.98,8.82 L64.98,8.83 Z" id="Shape"></path>
                <path d="M97.03,36.17 L64.11,36.17 L64.11,26.48 L97.03,26.48 L97.03,36.17 Z M64.98,35.31 L96.17,35.31 L96.17,27.35 L64.98,27.35 L64.98,35.31 Z" id="Shape"></path>
                <path d="M64.98,36.17 L32.06,36.17 L32.06,26.48 L64.98,26.48 L64.98,36.17 Z M32.92,35.31 L64.11,35.31 L64.11,27.35 L32.92,27.35 L32.92,35.31 Z" id="Shape"></path>
                <path d="M32.92,36.17 L0,36.17 L0,26.48 L32.92,26.48 L32.92,36.17 Z M0.86,35.31 L32.05,35.31 L32.05,27.35 L0.86,27.35 L0.86,35.31 Z" id="Shape"></path>
                <path d="M52.08,18.52 L19.16,18.52 L19.16,8.83 L52.08,8.83 L52.08,18.52 Z M20.03,17.65 L51.22,17.65 L51.22,9.69 L20.03,9.69 L20.03,17.65 Z" id="Shape"></path>
                <path d="M84.14,18.52 L51.22,18.52 L51.22,8.83 L84.14,8.83 L84.14,18.52 Z M52.08,17.65 L83.27,17.65 L83.27,9.69 L52.08,9.69 L52.08,17.65 Z" id="Shape"></path>
                <path d="M52.08,45 L19.16,45 L19.16,35.31 L52.08,35.31 L52.08,45 Z M20.03,44.14 L51.22,44.14 L51.22,36.18 L20.03,36.18 L20.03,44.14 Z" id="Shape"></path>
                <path d="M84.14,45 L51.22,45 L51.22,35.31 L84.14,35.31 L84.14,45 Z M52.08,44.14 L83.27,44.14 L83.27,36.18 L52.08,36.18 L52.08,44.14 Z" id="Shape"></path>
                <path d="M40.24,27.35 L7.32,27.35 L7.32,17.66 L40.24,17.66 L40.24,27.35 Z M8.18,26.48 L39.37,26.48 L39.37,18.52 L8.18,18.52 L8.18,26.48 Z" id="Shape"></path>
                <path d="M72.29,27.35 L39.37,27.35 L39.37,17.66 L72.29,17.66 L72.29,27.35 Z M40.24,26.48 L71.43,26.48 L71.43,18.52 L40.24,18.52 L40.24,26.48 L40.24,26.48 Z" id="Shape"></path>
            </g>
            <path d="M71.08,45 L26.08,45 L26.08,0 L71.08,0 L71.08,45 Z M26.95,44.14 L70.22,44.14 L70.22,0.86 L26.95,0.86 L26.95,44.13 L26.95,44.14 Z" id="Shape"></path>
        </g>
    </g>
</svg>