
<svg width="120px" height="120px" viewBox="0 0 120 120" version="1.1" xmlns="http://www.w3.org/2000/svg" xmlns:xlink="http://www.w3.org/1999/xlink">
    <g id="Page-1" stroke="none" stroke-width="1" fill="none" fill-rule="evenodd">
        <g id="langlebigkeit" fill-rule="nonzero">
            <path d="M117.25,2.75 L117.25,117.25 L2.75,117.25 L2.75,2.75 L117.25,2.75 M120,0 L0,0 L0,120 L120,120 L120,0 L120,0 Z" id="Shape" fill="#00A65C"></path>
            <path d="M73.96,99.97 C76.84,98.91 77.17,97.23 79.15,96.02 C80.6,95.15 82.01,94.38 83.35,93.36 C86.56,90.92 87.99,92.4 90.77,89.22 C91.83,88.01 94.46,85.2 94.76,83.77 C95.18,81.7 94.86,80.88 95.75,79.22 C96.51,77.79 97.15,76.37 97.74,74.86 C98.53,72.81 100.6,72.07 101.18,70.05 C101.62,68.5 101.8,66.94 102,65.33 C102.22,63.54 100.5,61.61 100.44,59.95 C100.37,57.96 100.27,56.06 99.94,54.09 C99.51,51.49 100.61,50.46 100.07,48.74 L98.59,44.04 C98.13,42.57 96.97,39.49 95.74,38.61 L93.12,36.73 C92.63,36.38 92.21,35.82 92,35.25 L90.87,32.17 C90.47,31.07 89.9,30.17 89.04,29.38 L86.3,26.86 C85.25,25.9 84.08,25.34 82.62,25.25 L81.44,25.18 C80.49,25.12 79.67,24.93 78.84,24.48 C76.95,23.47 75.05,22.74 73.07,21.93 C71.21,21.18 69.25,19.01 66.96,18.61 C64.42,18.17 61.93,17.89 59.34,17.94 C56.01,18.01 53.35,20.26 50.74,20.75 C48.43,21.18 45.92,20.22 43.29,21.45 C41.37,22.35 39.42,23.15 37.72,24.45 C36.57,25.33 35.4,28.17 34.17,28.91 C31.42,30.57 29.33,30.44 27.14,33.35 C25.91,34.99 24.64,36.56 23.68,38.4 C22.94,39.82 22.7,41.41 22.45,42.97 C22.17,44.71 21.83,46.3 21.27,47.99 C19.95,51.98 19.35,56.07 19.33,60.27 C19.33,60.62 19.28,61.12 19.2,61.43 L18.32,64.91 C17.92,66.48 17.92,67.93 18.28,69.5 C18.81,71.85 19.5,74.1 20.38,76.33 C21.59,79.4 23.96,79.64 24.91,81.03 C26.37,83.17 27.71,85.23 29.45,87.16 C30.99,88.86 31.62,91.36 33.38,92.82 C34.75,93.96 36.11,94.99 37.6,95.97 C39.7,97.36 41.39,95.99 43.1,97.43 L45.74,99.66 C47.14,100.84 48.67,101.6 50.5,101.76 C51.97,101.89 53.39,102.05 54.89,102.1 C56.81,102.17 58.7,100.51 61.19,101.06 L65.29,101.95 C68.09,102.56 71.23,101.01 73.99,99.99 L73.96,99.97 Z" id="Path"></path>
            <path d="M73.96,99.97 C71.2,100.99 68.06,102.54 65.26,101.93 L61.16,101.04 C58.67,100.5 56.79,102.15 54.86,102.08 C53.36,102.03 51.94,101.86 50.47,101.74 C48.64,101.58 47.1,100.82 45.71,99.64 L43.07,97.41 C41.36,95.97 39.67,97.34 37.57,95.95 C36.09,94.97 34.72,93.94 33.35,92.8 C31.59,91.33 30.96,88.84 29.42,87.14 C27.68,85.22 26.34,83.15 24.88,81.01 C23.93,79.62 21.56,79.38 20.35,76.31 C19.47,74.08 18.78,71.83 18.25,69.48 C17.89,67.91 17.9,66.46 18.29,64.89 L19.17,61.41 C19.25,61.1 19.29,60.6 19.3,60.25 C19.32,56.05 19.92,51.97 21.24,47.97 C21.8,46.29 22.14,44.7 22.42,42.95 C22.67,41.39 22.91,39.79 23.65,38.38 C24.61,36.54 25.88,34.97 27.11,33.33 C29.3,30.42 31.39,30.55 34.14,28.89 C35.36,28.15 36.53,25.31 37.69,24.43 C39.39,23.13 41.35,22.33 43.26,21.43 C45.89,20.2 48.4,21.16 50.71,20.73 C53.32,20.24 55.99,17.99 59.31,17.92 C61.89,17.87 64.39,18.15 66.93,18.59 C69.22,18.99 71.18,21.16 73.04,21.91 C75.02,22.71 76.93,23.45 78.81,24.46 C79.64,24.9 80.46,25.1 81.41,25.16 L82.59,25.23 C84.05,25.32 85.22,25.88 86.27,26.84 L89.01,29.36 C89.87,30.15 90.44,31.05 90.84,32.15 L91.97,35.23 C92.18,35.8 92.6,36.36 93.09,36.71 L95.71,38.59 C96.94,39.47 98.1,42.55 98.56,44.02 L100.04,48.72 C100.58,50.44 99.48,51.47 99.91,54.07 C100.24,56.04 100.33,57.94 100.41,59.93 C100.47,61.59 102.19,63.51 101.97,65.31 C101.77,66.92 101.59,68.48 101.15,70.03 C100.57,72.05 98.51,72.79 97.71,74.84 C97.13,76.35 96.48,77.77 95.72,79.2 C94.84,80.87 95.16,81.68 94.73,83.75 C94.44,85.19 91.8,87.99 90.74,89.2 C87.96,92.38 86.53,90.91 83.32,93.34 C81.98,94.36 80.57,95.12 79.12,96 C77.13,97.2 76.81,98.89 73.93,99.95 L73.96,99.97 Z M65.65,99.44 C66.58,99.64 67.59,99.56 68.51,99.27 C70.42,98.68 72.21,98 74.03,97.18 C74.6,96.92 75.12,96.27 75.54,95.82 C77.78,93.45 79.22,93.36 81.79,91.4 C84.76,89.12 87,89.38 87.81,88.61 C89.49,87.02 90.94,85.35 92.23,83.43 C92.74,82.68 92.15,80.57 93.53,78.03 C94.22,76.78 94.8,75.49 95.3,74.16 C96.4,71.27 98.38,70.54 98.71,69.42 C99.15,67.93 99.51,66.3 99.39,64.74 C99.29,63.53 98.35,62.53 98.11,61.35 C97.87,60.17 97.96,58.89 97.83,57.63 L97.31,52.63 C97.21,51.67 97.62,50.72 97.75,49.76 L96.27,45.04 C95.83,43.62 95.36,42.21 94.52,40.97 C93.52,39.51 90.69,39.04 89.61,36.04 L88.47,32.87 C88.28,32.34 87.93,31.81 87.53,31.41 C86.49,30.39 85.46,29.46 84.38,28.51 C83.71,27.92 82.98,27.78 82.1,27.72 C79.48,27.53 79.31,27.52 77.03,26.36 C75.86,25.77 74.72,25.23 73.49,24.8 C70.03,23.61 68.38,21.55 66.97,21.2 C64.45,20.59 61.92,20.4 59.33,20.42 C58.47,20.42 57.57,20.7 56.81,21.03 L53.03,22.66 C50.01,23.97 47.04,22.93 45.3,23.4 C43.98,23.75 39.54,25.8 38.95,26.69 L37.52,28.86 C36.76,30 35.82,30.96 34.54,31.54 L30.99,33.14 C29.53,33.8 27.05,37.56 26.13,39.04 C25.44,40.16 25.22,41.47 25,42.77 C24.66,44.76 24.32,46.63 23.67,48.56 C22.39,52.37 21.84,56.23 21.81,60.25 C21.81,60.85 21.71,61.54 21.58,62.09 L20.58,66.21 C20.07,68.31 22.03,73.82 22.95,75.94 C23.15,76.4 23.57,76.75 23.97,77.04 L25.95,78.5 C26.7,79.05 27.23,79.85 27.73,80.65 C28.83,82.38 29.98,83.95 31.32,85.48 C32.82,87.19 33.83,89.78 34.66,90.56 C36.07,91.88 37.55,92.93 39.18,93.96 C40.07,94.53 42.28,93.48 44.52,95.34 L47.89,98.13 C48.63,98.75 49.55,99.07 50.51,99.18 C51.97,99.35 53.37,99.5 54.87,99.53 C56.37,99.56 58.53,97.88 61.44,98.51 L65.66,99.42 L65.65,99.44 Z" id="Shape" fill="#00A65C"></path>
            <path d="M73.56,91.68 C64.76,95.56 54.69,95.51 45.98,91.6 C38.05,88.04 31.78,81.68 28.35,73.7 C24.63,65.03 24.7,55.07 28.56,46.46 C32.1,38.56 38.42,32.31 46.35,28.87 C54.9,25.16 64.69,25.14 73.24,28.82 C81.25,32.27 87.63,38.56 91.18,46.54 C95.06,55.25 95.06,65.4 91.18,74.12 C87.69,81.96 81.45,88.2 73.55,91.68 L73.56,91.68 Z M91.47,63.05 C92.88,46.73 81.56,31.93 65.34,29.06 C61.68,28.41 58.01,28.42 54.39,29.06 C37.91,31.97 26.48,47.23 28.33,63.81 C29.88,77.76 40.54,89.18 54.5,91.58 C72.77,94.72 89.88,81.5 91.48,63.05 L91.47,63.05 Z" id="Shape" fill="#00A65C"></path>
            <path d="M45.58,85.43 C59.57,93.39 77.12,88.38 84.97,74.61 C93.42,59.8 87.27,40.92 71.57,33.91 C62.86,30.02 52.66,30.64 44.26,36 C35.07,41.86 30.05,52.44 31.1,63.15 C32.02,72.5 37.45,80.81 45.57,85.43 L45.58,85.43 Z" id="Path"></path>
            <path d="M45.58,85.43 C37.46,80.81 32.02,72.5 31.11,63.15 C30.06,52.44 35.09,41.86 44.27,36 C52.66,30.64 62.87,30.03 71.58,33.91 C87.28,40.92 93.42,59.79 84.98,74.61 C77.13,88.38 59.58,93.39 45.59,85.43 L45.58,85.43 Z M83.9,71.22 C88.66,60.74 86.04,48.52 77.7,40.87 C69.36,33.22 56.87,31.71 46.95,37.3 C34.2,44.48 29.65,60.63 36.93,73.39 C41.89,82.08 51.35,87.26 61.41,86.68 C71.47,86.1 79.82,80.19 83.89,71.22 L83.9,71.22 Z" id="Shape" fill="#00A65C"></path>
            <path d="M78.5,73.44 C73.9,80.01 66.31,83.5 58.44,83.06 C50.57,82.62 43.96,78.21 40.27,71.97 C36.05,64.83 36.03,56.16 40.01,49.14 C44.53,41.16 53.25,36.69 62.33,37.65 C71.41,38.61 78.48,44.44 81.4,52.85 C83.78,59.7 82.81,67.29 78.5,73.44 Z M61.09,80.58 C71.83,79.93 80.21,70.96 80.1602226,60.22 C80.11,49.48 71.62,40.6 60.9,40.05 C50.19,39.5 40.81,47.44 39.67,58.27 C38.37,70.6 48.57,81.34 61.1,80.58 L61.09,80.58 Z" id="Shape" fill="#00A65C"></path>
            <path d="M61.71,43.63 C71.01,44.66 77.57,53.06 76.56,62.17 C75.55,71.28 67.21,78.02 58.04,77.01 C48.87,76 42.22,67.75 43.16,58.59 C44.11,49.43 52.38,42.6 61.71,43.63 L61.71,43.63 Z M58.27,46.12 C50.34,47.01 44.78,54.2 45.66,61.92 C46.54,69.64 53.61,75.38 61.41,74.53 C69.21,73.68 74.89,66.64 74.08,58.86 C73.27,51.08 66.23,45.23 58.27,46.12 L58.27,46.12 Z" id="Shape" fill="#00A65C"></path>
            <path d="M58.41,49.69 C64.43,48.86 69.77,53.12 70.52,58.99 C71.27,64.86 67.13,70.16 61.31,70.96 C55.49,71.76 50.03,67.63 49.23,61.76 C48.43,55.89 52.44,50.51 58.41,49.69 L58.41,49.69 Z M61.13,68.44 C64.58,67.88 67.17,65.34 67.9,62.01 C68.88,57.55 65.93,53.13 61.42,52.24 C56.26,51.22 51.44,55.33 51.64,60.59 C51.82,65.46 56.23,69.22 61.12,68.43 L61.13,68.44 Z" id="Shape" fill="#00A65C"></path>
            <path d="M58.93,55.85 C61.54,55.32 63.88,57 64.36,59.48 C64.84,61.96 63.23,64.3 60.78,64.79 C58.33,65.28 55.91,63.73 55.39,61.24 C54.87,58.75 56.35,56.37 58.93,55.85 L58.93,55.85 Z M59.22,58.37 C58.06,58.79 57.55,60 57.9,60.96 C58.3,62.06 59.47,62.66 60.51,62.28 C61.55,61.9 62.22,60.75 61.86,59.75 C61.48,58.67 60.38,57.95 59.22,58.37 L59.22,58.37 Z" id="Shape" fill="#00A65C"></path>
            <path d="M59.22,58.37 C60.38,57.96 61.48,58.67 61.86,59.75 C62.21,60.75 61.55,61.9 60.51,62.28 C59.47,62.66 58.31,62.06 57.9,60.96 C57.55,60 58.05,58.79 59.22,58.37 L59.22,58.37 Z" id="Path"></path>
        </g>
    </g>
</svg>
