
<svg width="120px" height="120px" viewBox="0 0 120 120" version="1.1" xmlns="http://www.w3.org/2000/svg" xmlns:xlink="http://www.w3.org/1999/xlink">
    <g id="Page-1" stroke="none" stroke-width="1" fill="none" fill-rule="evenodd">
        <g id="nachhaltigkeit" fill="#00A65C" fill-rule="nonzero">
            <path d="M117.25,2.75 L117.25,117.25 L2.75,117.25 L2.75,2.75 L117.25,2.75 M120,0 L0,0 L0,120 L120,120 L120,0 L120,0 Z" id="Shape"></path>
            <path d="M76.94,95.59 L42.93,95.59 C41.96,95.59 41.17,94.8 41.17,93.83 C41.17,92.86 41.96,92.07 42.93,92.07 L76.94,92.07 C77.91,92.07 78.7,92.86 78.7,93.83 C78.7,94.8 77.91,95.59 76.94,95.59 L76.94,95.59 Z" id="Pfad_165"></path>
            <path d="M59.92,95.59 C58.95,95.59 58.16,94.8 58.16,93.83 L58.16,53.61 C58.16,52.64 58.95,51.85 59.92,51.85 C60.89,51.85 61.68,52.64 61.68,53.61 L61.68,93.82 C61.68,94.79 60.89,95.58 59.92,95.59 L59.92,95.59 Z" id="Pfad_166"></path>
            <path d="M60.04,85.08 C53.8,85.08 47.29,81.64 42.99,76.04 C38.34,69.98 36.96,62.26 39.1,54.28 C44.49,34.17 51.35,24.4 60.03,24.4 C68.71,24.4 76.72,35.59 80.96,54.34 L80.96,54.34 C83.52,65.56 80.17,72.76 76.93,76.83 C72.82,81.97 66.61,84.99 60.03,85.04 L60.03,85.07 L60.04,85.08 Z M60.04,27.94 C53.36,27.94 47.29,37.36 42.52,55.2 C40.67,62.09 41.84,68.71 45.82,73.89 C49.38,78.54 54.98,81.54 60.04,81.54 C65.53,81.39 70.69,78.88 74.2,74.65 C76.97,71.21 79.79,64.99 77.56,55.16 L77.56,55.16 C73.76,38.38 67.05,27.99 60.07,27.99 L60.04,27.93 L60.04,27.94 Z" id="Pfad_167"></path>
        </g>
    </g>
</svg>
