<?xml version="1.0" encoding="UTF-8"?><svg id="parkettaufbau_svg__Ebene_2" xmlns="http://www.w3.org/2000/svg" viewBox="0 0 320 75.65"><defs/><g id="parkettaufbau_svg__Ebene_1-2"><path d="M138.51,75.65H0V24.89h138.51v50.77ZM.99,74.66h136.52V25.88H.99v48.78Z" style="fill:#473d38"/><path d="M138.51,25.88H0V0h138.51v25.88ZM.99,24.89h136.52V.99H.99v23.89Z" style="fill:#473d38"/><rect x=".5" y="25.38" width="137.51" height="49.77" style="fill:#473d38;opacity:.09"/><rect x=".5" y=".5" width="137.51" height="24.89" style="opacity:.03;fill:#473d38"/><path d="M204.2,17.03h-1.55l-3.86-4.42v4.42h-2v-8.06h1.53l3.89,4.54v-4.54h2v8.06Z" style="fill:#473d38"/><path d="M213.29,13.27c0,2.5-1.45,3.93-3.76,3.93s-3.74-1.43-3.74-3.93v-4.3h2.01v4.34c0,1.23.68,2.03,1.73,2.03s1.74-.79,1.74-2.03v-4.34h2.01v4.3Z" style="fill:#473d38"/><path d="M218.91,10.76v6.27h-2v-6.27h-2.57v-1.79h7.13v1.79h-2.56Z" style="fill:#473d38"/><path d="M229.17,17.03h-6.98v-.95l3.99-5.34h-3.79v-1.77h6.71v.95l-3.83,5.34h3.9v1.77Z" style="fill:#473d38"/><path d="M237.16,11.47h-2.01c-.11-.6-.49-1.02-1.3-1.02-.69,0-1.15.28-1.15.81,0,.44.32.63.93.76l1.13.26c1.47.32,2.43.91,2.43,2.3,0,1.61-1.33,2.62-3.34,2.62-1.81,0-3.45-.85-3.64-2.84h2c.13.71.75,1.14,1.69,1.14.75,0,1.14-.27,1.14-.71,0-.27-.17-.56-.85-.69l-1.33-.3c-1.59-.34-2.33-1.09-2.33-2.37,0-1.61,1.3-2.63,3.2-2.63,1.3,0,3.25.51,3.45,2.68Z" style="fill:#473d38"/><path d="M244.65,13.69h2.05c-.25,2.09-1.84,3.51-4.04,3.51-2.43,0-4.26-1.76-4.26-4.19s1.84-4.19,4.26-4.19c2.2,0,3.79,1.42,4.04,3.51h-2.05c-.23-1.01-.94-1.63-2-1.63-1.32,0-2.23.98-2.23,2.32s.91,2.32,2.23,2.32c1.07,0,1.78-.63,2-1.63Z" style="fill:#473d38"/><path d="M255.51,17.03h-2v-3.02h-3.28v3.02h-2v-8.06h2v3.24h3.28v-3.24h2v8.06Z" style="fill:#473d38"/><path d="M259.21,17.03h-2v-8.06h2v8.06Z" style="fill:#473d38"/><path d="M266.99,13.69h2.05c-.25,2.09-1.84,3.51-4.04,3.51-2.43,0-4.26-1.76-4.26-4.19s1.84-4.19,4.26-4.19c2.2,0,3.79,1.42,4.04,3.51h-2.05c-.23-1.01-.94-1.63-2-1.63-1.32,0-2.23.98-2.23,2.32s.91,2.32,2.23,2.32c1.07,0,1.78-.63,2-1.63Z" style="fill:#473d38"/><path d="M277.84,17.03h-2v-3.02h-3.28v3.02h-2v-8.06h2v3.24h3.28v-3.24h2v8.06Z" style="fill:#473d38"/><path d="M283.6,10.76v6.27h-2v-6.27h-2.57v-1.79h7.13v1.79h-2.56Z" style="fill:#473d38"/><path d="M290.6,14.3l4-5.47h.72v5.47h1.17l-.13.58h-1.04v2.15h-.69v-2.15h-4.03v-.58ZM294.63,14.3v-4.54l-3.28,4.54h3.28Z" style="fill:#473d38"/><path d="M301.11,10.92h.69v1.01c.3-.4.62-.7.97-.9s.69-.3,1.05-.3c.47,0,.84.11,1.12.31.28.21.49.5.62.88.28-.38.6-.67.97-.88s.77-.31,1.2-.31c.58,0,1.04.16,1.38.47.33.32.5.82.5,1.52v4.3h-.69v-4.06c0-.32-.03-.58-.08-.78-.05-.21-.13-.37-.24-.5s-.24-.22-.4-.27c-.16-.05-.34-.08-.56-.08-.18,0-.39.03-.62.1-.23.07-.46.19-.67.37-.19.15-.35.33-.47.55s-.18.46-.18.75v3.91h-.69v-4.04c0-.59-.1-1.01-.31-1.26s-.52-.37-.94-.37c-.24,0-.46.05-.67.15s-.42.24-.62.42c-.07.06-.15.14-.23.23-.08.09-.16.19-.22.31s-.12.26-.16.41c-.04.16-.06.34-.06.55v3.62h-.69v-6.11Z" style="fill:#473d38"/><path d="M311.51,10.92h.69v1.01c.3-.4.62-.7.97-.9s.69-.3,1.05-.3c.47,0,.84.11,1.12.31.28.21.49.5.62.88.28-.38.6-.67.97-.88s.77-.31,1.2-.31c.58,0,1.04.16,1.38.47.33.32.5.82.5,1.52v4.3h-.69v-4.06c0-.32-.03-.58-.08-.78-.05-.21-.13-.37-.24-.5s-.24-.22-.4-.27c-.16-.05-.34-.08-.56-.08-.18,0-.39.03-.62.1-.23.07-.46.19-.67.37-.19.15-.35.33-.47.55s-.18.46-.18.75v3.91h-.69v-4.04c0-.59-.1-1.01-.31-1.26s-.52-.37-.94-.37c-.24,0-.46.05-.67.15s-.42.24-.62.42c-.07.06-.15.14-.23.23-.08.09-.16.19-.22.31s-.12.26-.16.41c-.04.16-.06.34-.06.55v3.62h-.69v-6.11Z" style="fill:#473d38"/><path d="M205.48,54.33h-2v-4.04l-1.79,2.76h0s-1.11.01-1.11.01h0s-1.8-2.8-1.8-2.8v4.06s-1.99,0-1.99,0v-8.06h1.48l2.87,4.3,2.86-4.3h1.49v8.06Z" style="fill:#473d38"/><path d="M214.58,50.57c0,2.5-1.45,3.93-3.76,3.93s-3.74-1.43-3.74-3.93v-4.3h2.01v4.34c0,1.23.68,2.03,1.73,2.03s1.74-.79,1.74-2.03v-4.34h2.01v4.3Z" style="fill:#473d38"/><path d="M222.16,54.33h-5.98v-8.06h2v6.29h3.98v1.77Z" style="fill:#473d38"/><path d="M225.95,48.06v6.27h-2v-6.27h-2.57v-1.79h7.13v1.79h-2.56Z" style="fill:#473d38"/><path d="M231.7,54.33h-2v-8.06h2v8.06Z" style="fill:#473d38"/><path d="M236.66,46.27c2.1,0,3.41,1.14,3.41,2.95s-1.37,3.06-3.58,3.06h-1.08v2.05h-2v-8.06h3.24ZM236.61,50.53c.89,0,1.46-.51,1.46-1.3,0-.72-.57-1.18-1.46-1.18h-1.2v2.49h1.2Z" style="fill:#473d38"/><path d="M247.17,54.33h-5.98v-8.06h2v6.29h3.98v1.77Z" style="fill:#473d38"/><path d="M250.41,49.48h3.57v1.71h-3.57v1.4h4.09v1.74h-6.09v-8.06h6.09v1.74h-4.09v1.47Z" style="fill:#473d38"/><path d="M259.35,51.85l-1.74,2.48h-2.3l2.69-3.97-2.65-4.09h2.41l1.59,2.49,1.59-2.49h2.4l-2.65,4.09,2.7,3.97h-2.3l-1.73-2.48Z" style="fill:#473d38"/><path d="M270.74,46.86l-2.05,1.25-.3-.53,2.35-1.43h.71v8.19h-.71v-7.47Z" style="fill:#473d38"/><path d="M275.92,52.4c.06.27.13.5.23.69.1.19.22.35.39.47.16.12.36.21.58.27s.5.09.81.09c.6,0,1.07-.18,1.41-.53s.51-.9.51-1.64c0-.29-.03-.55-.1-.8-.07-.25-.17-.46-.33-.65-.15-.18-.35-.32-.59-.43-.24-.1-.53-.15-.87-.15-.41,0-.77.06-1.08.18-.31.12-.59.32-.84.59h-.62l.34-4.35h4.32v.65h-3.75l-.26,3c.14-.11.28-.21.42-.29.14-.08.29-.15.44-.21s.32-.1.5-.12.39-.04.63-.04c.44,0,.82.07,1.13.21.31.14.57.33.77.56.2.24.35.51.45.82.09.31.14.65.14,1,0,.46-.06.86-.18,1.22-.12.35-.3.65-.53.88-.23.24-.51.42-.83.54-.32.12-.69.18-1.09.18-.82,0-1.45-.18-1.89-.55-.44-.37-.7-.9-.78-1.59h.66Z" style="fill:#473d38"/><path d="M282.58,53.19h.81l-.56,2.3h-.58l.33-2.3Z" style="fill:#473d38"/><path d="M285.87,52.4c.06.27.13.5.23.69.1.19.22.35.39.47.16.12.36.21.58.27s.5.09.81.09c.6,0,1.07-.18,1.41-.53s.51-.9.51-1.64c0-.29-.03-.55-.1-.8-.07-.25-.17-.46-.33-.65-.15-.18-.35-.32-.59-.43-.24-.1-.53-.15-.87-.15-.41,0-.77.06-1.08.18-.31.12-.59.32-.84.59h-.62l.34-4.35h4.32v.65h-3.75l-.26,3c.14-.11.28-.21.42-.29.14-.08.29-.15.44-.21s.32-.1.5-.12.39-.04.63-.04c.44,0,.82.07,1.13.21.31.14.57.33.77.56.2.24.35.51.45.82.09.31.14.65.14,1,0,.46-.06.86-.18,1.22-.12.35-.3.65-.53.88-.23.24-.51.42-.83.54-.32.12-.69.18-1.09.18-.82,0-1.45-.18-1.89-.55-.44-.37-.7-.9-.78-1.59h.66Z" style="fill:#473d38"/><path d="M295.4,48.22h.69v1.01c.3-.4.62-.7.97-.9s.69-.3,1.05-.3c.47,0,.84.11,1.12.31.28.21.49.5.62.88.28-.38.6-.67.97-.88s.77-.31,1.2-.31c.58,0,1.04.16,1.38.47.33.32.5.82.5,1.52v4.3h-.69v-4.06c0-.32-.03-.58-.08-.78-.05-.21-.13-.37-.24-.5s-.24-.22-.4-.27c-.16-.05-.34-.08-.56-.08-.18,0-.39.03-.62.1-.23.07-.46.19-.67.37-.19.15-.35.33-.47.55s-.18.46-.18.75v3.91h-.69v-4.04c0-.59-.1-1.01-.31-1.26s-.52-.37-.94-.37c-.24,0-.46.05-.67.15s-.42.24-.62.42c-.07.06-.15.14-.23.23-.08.09-.16.19-.22.31s-.12.26-.16.41c-.04.16-.06.34-.06.55v3.62h-.69v-6.11Z" style="fill:#473d38"/><path d="M305.8,48.22h.69v1.01c.3-.4.62-.7.97-.9s.69-.3,1.05-.3c.47,0,.84.11,1.12.31.28.21.49.5.62.88.28-.38.6-.67.97-.88s.77-.31,1.2-.31c.58,0,1.04.16,1.38.47.33.32.5.82.5,1.52v4.3h-.69v-4.06c0-.32-.03-.58-.08-.78-.05-.21-.13-.37-.24-.5s-.24-.22-.4-.27c-.16-.05-.34-.08-.56-.08-.18,0-.39.03-.62.1-.23.07-.46.19-.67.37-.19.15-.35.33-.47.55s-.18.46-.18.75v3.91h-.69v-4.04c0-.59-.1-1.01-.31-1.26s-.52-.37-.94-.37c-.24,0-.46.05-.67.15s-.42.24-.62.42c-.07.06-.15.14-.23.23-.08.09-.16.19-.22.31s-.12.26-.16.41c-.04.16-.06.34-.06.55v3.62h-.69v-6.11Z" style="fill:#473d38"/><rect x="113.12" y="12.69" width="74.66" height=".5" style="fill:#473d38"/><rect x="113.12" y="50.02" width="74.66" height=".5" style="fill:#473d38"/><path d="M109.36,17.04c-2.26,0-4.1-1.84-4.1-4.1s1.84-4.1,4.1-4.1,4.1,1.84,4.1,4.1-1.84,4.1-4.1,4.1ZM109.36,9.34c-1.98,0-3.6,1.61-3.6,3.6s1.61,3.6,3.6,3.6,3.6-1.61,3.6-3.6-1.61-3.6-3.6-3.6Z" style="fill:#473d38"/><path d="M109.36,54.37c-2.26,0-4.1-1.84-4.1-4.1s1.84-4.1,4.1-4.1,4.1,1.84,4.1,4.1-1.84,4.1-4.1,4.1ZM109.36,46.67c-1.98,0-3.6,1.61-3.6,3.6s1.61,3.6,3.6,3.6,3.6-1.62,3.6-3.6-1.61-3.6-3.6-3.6Z" style="fill:#473d38"/></g></svg>