
<svg width="120px" height="120px" viewBox="0 0 120 120" version="1.1" xmlns="http://www.w3.org/2000/svg" xmlns:xlink="http://www.w3.org/1999/xlink">
    <g id="Page-1" stroke="none" stroke-width="1" fill="none" fill-rule="evenodd">
        <g id="wertsteigerung" fill-rule="nonzero">
            <path d="M117.25,2.75 L117.25,117.25 L2.75,117.25 L2.75,2.75 L117.25,2.75 M120,0 L0,0 L0,120 L120,120 L120,0 L120,0 Z" id="Shape" fill="#00A65C"></path>
            <path d="M92.9,90.83 L27.11,90.83 C26.12,90.83 25.31,90.03 25.31,89.03 C25.31,88.04 26.11,87.23 27.11,87.23 L92.9,87.23 C93.89,87.23 94.7,88.04 94.7,89.03 C94.7,90.02 93.89,90.83 92.9,90.83 Z" id="Pfad_169" fill="#00A65B"></path>
            <path d="M30.53,61.9 C29.54,61.9 28.74,61.09 28.7499073,60.1 C28.7499073,59.26 29.35,58.53 30.17,58.36 C30.47,58.3 61.65,51.33 81.63,29.79 C82.29,29.04 83.43,28.97 84.18,29.63 C84.93,30.29 85,31.43 84.34,32.18 C84.32,32.2 84.3,32.23 84.27,32.25 C63.51,54.6 32.27,61.6 30.95,61.87 C30.83,61.87 30.71,61.9 30.56,61.9 L30.53,61.9 L30.53,61.9 Z" id="Pfad_170" fill="#00A65B"></path>
            <path d="M33.12,85.54 C32.13,85.54 31.32,84.73 31.32,83.74 L31.32,71.6 C31.32,70.61 32.13,69.8 33.12,69.8 C34.11,69.8 34.92,70.61 34.92,71.6 L34.92,83.74 C34.92,84.73 34.11,85.54 33.12,85.54 Z" id="Pfad_171" fill="#00A65B"></path>
            <path d="M43.69,85.45 C42.7,85.45 41.89,84.64 41.89,83.65 L41.89,64.3 C41.89,63.31 42.7,62.5 43.69,62.5 C44.68,62.5 45.49,63.31 45.49,64.3 L45.49,83.65 C45.49,84.64 44.68,85.45 43.69,85.45 Z" id="Pfad_172" fill="#00A65B"></path>
            <path d="M54.29,85.39 C53.3,85.39 52.49,84.58 52.49,83.59 L52.49,58.44 C52.49,57.45 53.3,56.64 54.29,56.64 C55.28,56.64 56.09,57.45 56.09,58.44 L56.09,83.58 C56.09,84.57 55.28,85.38 54.29,85.38 L54.29,85.39 Z" id="Pfad_173" fill="#00A65B"></path>
            <path d="M64.9,85.48 C63.91,85.48 63.1,84.67 63.1,83.68 L63.1,52.94 C63.1,51.95 63.91,51.14 64.9,51.14 C65.89,51.14 66.7,51.95 66.7,52.94 L66.7,83.67 C66.7,84.66 65.89,85.47 64.9,85.48 L64.9,85.48 Z" id="Pfad_174" fill="#00A65B"></path>
            <path d="M75.47,85.51 C74.48,85.51 73.67,84.7 73.67,83.71 L73.67,47.12 C73.67,46.13 74.48,45.32 75.47,45.32 C76.46,45.32 77.27,46.13 77.27,47.12 L77.27,83.71 C77.27,84.7 76.46,85.51 75.47,85.51 Z" id="Pfad_175" fill="#00A65B"></path>
            <path d="M86.08,85.39 C85.09,85.39 84.28,84.58 84.28,83.59 L84.28,41.83 C84.28,40.84 85.09,40.03 86.08,40.03 C87.07,40.03 87.88,40.84 87.88,41.83 L87.88,83.59 C87.88,84.58 87.07,85.39 86.08,85.39 Z" id="Pfad_176" fill="#00A65B"></path>
        </g>
    </g>
</svg>
