
<svg width="120px" height="120px" viewBox="0 0 120 120" version="1.1" xmlns="http://www.w3.org/2000/svg" xmlns:xlink="http://www.w3.org/1999/xlink">
    <g id="Page-1" stroke="none" stroke-width="1" fill="none" fill-rule="evenodd">
        <g id="wohnqualitaet">
            <polyline id="Path" stroke="#00A65C" stroke-width="3" points="88.24 48.47 88.24 93.31 31.76 93.31 31.76 48.47"></polyline>
            <polyline id="Path" stroke="#00A65C" stroke-width="3" points="21.15 57.53 60 26.69 98.85 57.53"></polyline>
            <path d="M59.06,82.37 L59.06,82.37 C59.32,82.63 59.68,82.76 60.01,82.76 C60.35,82.76 60.71,82.63 60.96,82.37 L60.96,82.37 C60.96,82.37 73.33,70.08 73.33,70.08 C73.33,70.08 73.34,70.06 73.35,70.06 C74.24,69.16 74.94,68.07 75.38,66.85 C75.72,65.92 75.9,64.91 75.9,63.87 C75.9,59.02 71.96,55.07 67.11,55.07 C64.17,55.07 61.59,56.53 59.99,58.74 C58.39,56.52 55.81,55.07 52.87,55.07 C48.02,55.07 44.08,59.01 44.08,63.87 C44.08,64.89 44.26,65.88 44.58,66.79 C44.95,67.83 45.51,68.78 46.21,69.6 L46.21,69.6 C46.49,69.93 46.8,70.24 47.13,70.52 L47.13,70.52 C47.13,70.52 59.06,82.37 59.06,82.37 L59.06,82.37 Z M46.43,66.14 C46.18,65.43 46.04,64.67 46.04,63.87 C46.04,61.98 46.8,60.28 48.04,59.03 C49.28,57.79 50.99,57.03 52.87,57.02 C55.63,57.02 58.02,58.67 59.1,61.04 C59.26,61.39 59.61,61.61 59.99,61.61 C60.37,61.61 60.72,61.38 60.88,61.04 C61.96,58.67 64.35,57.02 67.11,57.02 C69,57.02 70.7,57.79 71.94,59.03 C73.18,60.27 73.95,61.98 73.95,63.87 C73.95,64.69 73.81,65.46 73.55,66.19 C73.21,67.14 72.66,68 71.95,68.7 C71.95,68.7 71.95,68.7 71.94,68.71 L60.01,80.56 L48.51,69.14 L48.45,69.09 C48.18,68.86 47.92,68.6 47.68,68.33 C47.13,67.69 46.7,66.95 46.41,66.14 L46.43,66.14 Z" id="Shape" stroke="#00A65C" fill="#00A65C" fill-rule="nonzero"></path>
            <path d="M117.25,2.75 L117.25,117.25 L2.75,117.25 L2.75,2.75 L117.25,2.75 M120,0 L0,0 L0,120 L120,120 L120,0 L120,0 Z" id="Shape" fill="#00A65C" fill-rule="nonzero"></path>
        </g>
    </g>
</svg>
