<svg xmlns="http://www.w3.org/2000/svg" width="614.68" height="359.955"><g opacity=".5"><path fill="none" stroke="#473d38" stroke-miterlimit="10" stroke-width=".25" d="M438.625.125h175.93v357.94h-175.93z"/><path fill="none" stroke="#473d38" stroke-miterlimit="10" stroke-width=".25" d="M451.185 11.475h150.52v346.41h-150.52zM605.475 46.925h3.64v16.82h-3.64z"/><path d="M585.285 48.435v6.71h20.83v-6.71z" fill="#fff"/><path d="M585.285 48.435v6.71h20.83v-6.71z" fill="#473d38" opacity=".05"/><path d="M585.285 48.435h0v6.71h20.83v-6.71zM605.475 303.665h3.64v16.82h-3.64z" fill="none" stroke="#473d38" stroke-miterlimit="10" stroke-width=".25"/><path d="M585.285 305.165v6.71h20.83v-6.71z" fill="#fff"/><path d="M585.285 305.165v6.71h20.83v-6.71z" fill="#473d38" opacity=".05"/><path d="M585.285 305.165h0v6.71h20.83v-6.71zM451.885 169.775h0v9.64h28.75v-9.64z" fill="none" stroke="#473d38" stroke-miterlimit="10" stroke-width=".25"/><path fill="#fff" d="M469.935 174.045h21.78v1.66h-21.78z"/><path fill="#fff" d="M469.935 174.045h21.78v1.66h-21.78z"/><path fill="#473d38" opacity=".05" d="M469.935 174.045h21.78v1.66h-21.78z"/><path fill="none" stroke="#473d38" stroke-miterlimit="10" stroke-width=".25" d="M469.935 174.055h21.78v1.65h-21.78zM.125.125h177.39v359.41H.125z"/><path fill="none" stroke="#473d38" stroke-miterlimit="10" stroke-width=".25" d="M12.755 11.835h152.12v347.7H12.755zM30.605 29.605h116.39M30.405 246.615h116.25m-116.39-17.82h116.25m-115.63-86.39h116.25m-116.67-17.82h116.24m.23 217.33H30.695m116.41-330.14v347.76M30.535 11.905v347.63"/><path d="M19.435 178.545a1.93 1.93 0 1 1 .569 1.368 1.94 1.94 0 0 1-.569-1.368zm-3 0a5 5 0 1 1 4.95 4.93 4.93 4.93 0 0 1-4.96-4.93zm0 16.72a5.094 5.094 0 1 1-.01 0zm6.2-.15v2.29a1.19 1.19 0 1 1-2.37 0v-2.41a1.82 1.82 0 1 1 3.07-1.33 1.8 1.8 0 0 1-.71 1.45z" fill="none" stroke="#473d38" stroke-miterlimit="10" stroke-width=".25"/><path d="M21.555 179.885h-.22a1.43 1.43 0 1 1 0-2.86h23.8v2.81z" fill="#fff"/><path d="M21.555 179.885h-.22a1.43 1.43 0 1 1 0-2.86h23.8v2.81z" fill="#473d38" opacity=".05"/><path d="M21.555 179.885h-.22a1.43 1.43 0 1 1 0-2.86h23.8v2.81zM166.395 39.145h2.28v10.9h-2.28zm0 266.84h2.28v10.9h-2.28zM219.375.125h177.39v359.41h-177.39z" fill="none" stroke="#473d38" stroke-miterlimit="10" stroke-width=".25"/><path d="M384.605 359.955V10.825h-153.07v349.13M386.095 38.685h2.29v10.91h-2.29zm0 266.85h2.29v10.9h-2.29z" fill="none" stroke="#473d38" stroke-miterlimit="10" stroke-width=".25"/><path d="M258.385 318.175h34.35v-34.5h-34.35zm-2.39 2.36h39v-39.23h-39zm2.35-59.46h34.35v-34.51h-34.31zm-2.35 2.35h39v-39.22h-39zm2.35-59.27h34.35v-34.5h-34.31zm-2.35 2.37h39v-39.22h-39zm2.39-59.53h34.34v-34.54h-34.34zm-2.34 2.35h39v-39.25h-39zm2.34-59.35h34.34v-34.56h-34.34zm-2.34 2.35h39v-39.27h-39zM238.695 178.095a1.94 1.94 0 1 1 1.93 1.92 1.92 1.92 0 0 1-1.93-1.92zm-3 0a4.953 4.953 0 1 1-.01 0zm0 16.72a2.1 2.1 0 1 1-.01 0zm6.2-.15v2.33a1.19 1.19 0 1 1-2.37 0v-2.39a1.8 1.8 0 0 1-.58-1.33 1.82 1.82 0 1 1 2.95 1.43z" fill="none" stroke="#473d38" stroke-miterlimit="10" stroke-width=".25"/><path d="M240.805 179.425a.78.78 0 0 1-.22 0 1.43 1.43 0 1 1 0-2.86h23.8v2.81z" fill="#fff"/><path d="M240.805 179.425a.78.78 0 0 1-.22 0 1.43 1.43 0 1 1 0-2.86h23.8v2.81z" fill="#473d38" opacity=".05"/><path d="M240.805 179.425a.78.78 0 0 1-.22 0 1.43 1.43 0 1 1 0-2.86h23.8v2.81z" fill="none" stroke="#473d38" stroke-miterlimit="10" stroke-width=".25"/></g></svg>