<svg xmlns="http://www.w3.org/2000/svg" width="19.47" height="20.006"><path d="M13.8 20.006H5.666A5.69 5.69 0 0 1 0 14.34V5.666A5.69 5.69 0 0 1 5.666 0H13.8a5.682 5.682 0 0 1 5.67 5.666v8.674a5.682 5.682 0 0 1-5.67 5.666zm0-1.5a4.177 4.177 0 0 0 4.169-4.169V5.666A4.177 4.177 0 0 0 13.8 1.5H5.666A4.177 4.177 0 0 0 1.5 5.666v8.674a4.177 4.177 0 0 0 4.169 4.169z" fill="#473d38"/><path d="M15.124 9.923a5.362 5.362 0 1 1-5.361-5.362 5.362 5.362 0 0 1 5.362 5.362zM9.739 6.402a3.513 3.513 0 1 0 3.513 3.513 3.513 3.513 0 0 0-3.513-3.513z" fill="#473d38"/><circle cx="1.272" cy="1.272" r="1.272" transform="translate(13.94 3.209)" fill="#473d38"/></svg>