<svg xmlns="http://www.w3.org/2000/svg" viewBox="0 0 180 130.45"><g data-name="Ebene 2"><g data-name="Ebene 1"><path d="M25.94 10.15v35.53H14.58V10.15H0V0h40.45v10.15zm31 8.06h20.18v9.68H56.9v7.92h23.18v9.87H45.54V0h34.54v9.88H56.9zm41 14.25v13.22H86.53V0h20c11.29 0 18.88 6.18 18.88 16.06a15.4 15.4 0 0 1-8.73 14.18l11.76 15.44h-13.69L105 32.46zm8.39-10.22c4.37 0 7.86-2.42 7.86-6.18s-3.49-6-7.86-6h-8.44v12.18zM97.89 84.3v13.24H86.53v-45.7h20c11.29 0 18.89 6.19 18.89 16.06a15.38 15.38 0 0 1-8.74 14.18l11.76 15.46h-13.69L105 84.3zm8.39-10.22c4.37 0 7.87-2.41 7.87-6.18s-3.5-6-7.87-6h-8.39v12.18zm39.23 15.59l-3 7.87h-12.09l19.41-46h10.82l19.35 46h-12l-3.09-7.87zm9.68-24.86L149.27 80h11.83z" fill="#00a65c"/><path d="M0 118.83h3.25a5.84 5.84 0 0 1 1.65.17 2.69 2.69 0 0 1 1 .52 1.68 1.68 0 0 1 .53.77 3.27 3.27 0 0 1 .14 1 2.25 2.25 0 0 1-.22 1 1.93 1.93 0 0 1-.86.8 3.17 3.17 0 0 1 .66.45 1.7 1.7 0 0 1 .4.5 1.78 1.78 0 0 1 .21.54 3.53 3.53 0 0 1 0 .56 3.16 3.16 0 0 1-.17 1.07 2 2 0 0 1-.57.87 2.81 2.81 0 0 1-1 .59 5.19 5.19 0 0 1-1.59.21H0zm3.47 3.58a1.43 1.43 0 0 0 1-.28 1.05 1.05 0 0 0 .28-.8.88.88 0 0 0-.36-.79 2.43 2.43 0 0 0-1.22-.23H1.82v2.1zm-.07 4a2.88 2.88 0 0 0 .78-.09 1.19 1.19 0 0 0 .5-.26.84.84 0 0 0 .27-.4 1.61 1.61 0 0 0 .07-.51 1.18 1.18 0 0 0-.31-.89 1.65 1.65 0 0 0-1.12-.3H1.82v2.45zM11.35 128.06a3.24 3.24 0 0 1-2.47-.91 3.6 3.6 0 0 1-.87-2.6 4.18 4.18 0 0 1 .23-1.46 3 3 0 0 1 .67-1.1 2.87 2.87 0 0 1 1.09-.69 3.77 3.77 0 0 1 1.38-.24 3.86 3.86 0 0 1 1.39.24 2.9 2.9 0 0 1 1.72 1.79 4.43 4.43 0 0 1 .23 1.46 4.2 4.2 0 0 1-.24 1.47 3.11 3.11 0 0 1-.67 1.11 2.87 2.87 0 0 1-1.06.69 3.75 3.75 0 0 1-1.4.24zm0-1.41a1.27 1.27 0 0 0 1.13-.55 3.43 3.43 0 0 0 0-3.1 1.3 1.3 0 0 0-1.13-.53 1.31 1.31 0 0 0-1.14.53 2.77 2.77 0 0 0-.37 1.55 2.73 2.73 0 0 0 .37 1.56 1.27 1.27 0 0 0 1.14.54zM20.67 127a2.38 2.38 0 0 1-2.05 1.07 2.42 2.42 0 0 1-2.08-.93 4.39 4.39 0 0 1-.68-2.6 4.85 4.85 0 0 1 .2-1.41 3.46 3.46 0 0 1 .56-1.1 2.61 2.61 0 0 1 .9-.71 2.71 2.71 0 0 1 1.2-.25 2.77 2.77 0 0 1 1 .17 2.23 2.23 0 0 1 .92.69v-3.09h1.77v9h-1.74zm0-2.51a3.87 3.87 0 0 0-.11-1 1.39 1.39 0 0 0-.34-.62 1.2 1.2 0 0 0-.5-.3 2.62 2.62 0 0 0-.54-.06 1.26 1.26 0 0 0-.55.11 1.2 1.2 0 0 0-.46.35 1.82 1.82 0 0 0-.31.64 3.59 3.59 0 0 0-.11.93 3.47 3.47 0 0 0 .11 1 1.87 1.87 0 0 0 .29.65 1.15 1.15 0 0 0 .45.35 1.22 1.22 0 0 0 .54.11 1.47 1.47 0 0 0 1-.37 1.45 1.45 0 0 0 .37-.61 3 3 0 0 0 .12-.93zM30.19 125.8a2.56 2.56 0 0 1-.89 1.69 3.28 3.28 0 0 1-2.08.57 3.15 3.15 0 0 1-2.47-.91 3.69 3.69 0 0 1-.83-2.58 4.25 4.25 0 0 1 .24-1.48 3.1 3.1 0 0 1 .68-1.11 3 3 0 0 1 1-.69 3.59 3.59 0 0 1 1.34-.23 2.88 2.88 0 0 1 2.28.87 3.43 3.43 0 0 1 .77 2.35v.72h-4.54a2 2 0 0 0 .4 1.25 1.45 1.45 0 0 0 1.14.44 1.09 1.09 0 0 0 1.24-.88zm-1.63-2a1.59 1.59 0 0 0-.33-1.07 1.36 1.36 0 0 0-1.05-.38 1.52 1.52 0 0 0-.62.12 1.39 1.39 0 0 0-.45.31 1.48 1.48 0 0 0-.28.45 1.52 1.52 0 0 0-.11.57zM31.79 121.26h1.72v.91a2.42 2.42 0 0 1 .93-.85 2.45 2.45 0 0 1 1.12-.26 2.19 2.19 0 0 1 1.67.58 2.7 2.7 0 0 1 .54 1.86v4.36H36v-4.12a1.28 1.28 0 0 0-.27-.95 1 1 0 0 0-.71-.25 1.47 1.47 0 0 0-.58.1 1.32 1.32 0 0 0-.46.29 1.6 1.6 0 0 0-.3.42 1.25 1.25 0 0 0-.12.54v4h-1.77zM39.46 118.83h1.78v3.23a2.64 2.64 0 0 1 4.08-.07 4.26 4.26 0 0 1 .68 2.57 5 5 0 0 1-.19 1.43 3.24 3.24 0 0 1-.57 1.11 2.64 2.64 0 0 1-.91.71 2.71 2.71 0 0 1-1.2.25 2.58 2.58 0 0 1-1-.2 2.29 2.29 0 0 1-.92-.73v.73h-1.75zm1.76 5.78a4 4 0 0 0 .11 1 1.38 1.38 0 0 0 .35.63 1.21 1.21 0 0 0 .51.29 1.88 1.88 0 0 0 .53.07 1.29 1.29 0 0 0 .55-.11 1.23 1.23 0 0 0 .46-.36 1.74 1.74 0 0 0 .31-.64 3.28 3.28 0 0 0 .12-1 3.76 3.76 0 0 0-.11-1 1.73 1.73 0 0 0-.3-.64 1 1 0 0 0-.45-.35 1.26 1.26 0 0 0-.55-.11 1.62 1.62 0 0 0-.57.09 1.68 1.68 0 0 0-.46.27 1.54 1.54 0 0 0-.38.61 3.11 3.11 0 0 0-.12.94zM53.45 125.8a2.56 2.56 0 0 1-.89 1.69 3.26 3.26 0 0 1-2.08.57 3.17 3.17 0 0 1-2.47-.91 3.69 3.69 0 0 1-.83-2.58 4.25 4.25 0 0 1 .24-1.48 3.1 3.1 0 0 1 .68-1.09 3 3 0 0 1 1-.69 3.63 3.63 0 0 1 1.34-.23 2.9 2.9 0 0 1 2.29.87 3.42 3.42 0 0 1 .76 2.35v.7H49a2 2 0 0 0 .41 1.25 1.42 1.42 0 0 0 1.13.44 1.09 1.09 0 0 0 1.24-.88zm-1.63-2a1.59 1.59 0 0 0-.33-1.07 1.35 1.35 0 0 0-1.05-.38 1.52 1.52 0 0 0-.62.12 1.25 1.25 0 0 0-.44.31 1.34 1.34 0 0 0-.29.45 1.75 1.75 0 0 0-.11.57zM55.06 118.83h1.77v9h-1.77zM62.52 127a3.56 3.56 0 0 1-.88.72 2.54 2.54 0 0 1-1.25.28 2.84 2.84 0 0 1-.84-.12 1.85 1.85 0 0 1-.7-.35 1.62 1.62 0 0 1-.47-.62 2 2 0 0 1-.18-.89 1.91 1.91 0 0 1 .3-1.11 2 2 0 0 1 .8-.67 3.79 3.79 0 0 1 1.11-.34 10 10 0 0 1 1.24-.13h.85v-.33a.92.92 0 0 0-.34-.83 1.36 1.36 0 0 0-.79-.23c-.7 0-1.1.27-1.2.8l-1.62-.18a2.07 2.07 0 0 1 .91-1.5 3.67 3.67 0 0 1 2-.46 4.1 4.1 0 0 1 1.29.18 2.11 2.11 0 0 1 .85.52 2.07 2.07 0 0 1 .47.83 4.13 4.13 0 0 1 .14 1.1v4.17h-1.69zm-3.25-8.44h1.65v1.58h-1.65zm3.22 6.32h-.79a4.68 4.68 0 0 0-.9.12 1.4 1.4 0 0 0-.52.22.67.67 0 0 0-.25.31 1.23 1.23 0 0 0-.03.47.62.62 0 0 0 .23.52 1 1 0 0 0 .63.19 1.83 1.83 0 0 0 1.11-.32 1.41 1.41 0 0 0 .39-.45 1.26 1.26 0 0 0 .16-.67zm-.66-6.32h1.64v1.58h-1.64zM67.74 128.28a1.16 1.16 0 0 0 .14.4.72.72 0 0 0 .25.24 1.13 1.13 0 0 0 .38.12 4 4 0 0 0 .54 0 1.39 1.39 0 0 0 .77-.19 1 1 0 0 0 .41-.49 2.06 2.06 0 0 0 .17-.69v-1.01a2.08 2.08 0 0 1-.84.72 2.57 2.57 0 0 1-1.16.25 2.45 2.45 0 0 1-2.08-.9 3.85 3.85 0 0 1-.69-2.41 4.31 4.31 0 0 1 .2-1.33 3.05 3.05 0 0 1 .56-1 2.55 2.55 0 0 1 .9-.69 3 3 0 0 1 1.21-.24 2.59 2.59 0 0 1 1 .2 2.18 2.18 0 0 1 .92.74v-.74h1.78v5.68a6 6 0 0 1-.17 1.48 2.88 2.88 0 0 1-.54 1.11 2.42 2.42 0 0 1-1 .69 4 4 0 0 1-1.46.23 6 6 0 0 1-1.36-.13 2.64 2.64 0 0 1-.93-.4 1.8 1.8 0 0 1-.56-.69 2.94 2.94 0 0 1-.26-.95zm2.7-4a2.89 2.89 0 0 0-.13-1 1.45 1.45 0 0 0-.35-.56 1 1 0 0 0-.48-.26 2.39 2.39 0 0 0-.53-.06 1.45 1.45 0 0 0-.55.1 1 1 0 0 0-.46.33 1.68 1.68 0 0 0-.31.58 3 3 0 0 0-.11.84 2.18 2.18 0 0 0 .4 1.49 1.29 1.29 0 0 0 1 .44 1.79 1.79 0 0 0 .62-.1 1.15 1.15 0 0 0 .48-.3 1.4 1.4 0 0 0 .32-.55 2.69 2.69 0 0 0 .11-.81zM80 125.8a2.56 2.56 0 0 1-.89 1.69 3.26 3.26 0 0 1-2.08.57 3.17 3.17 0 0 1-2.47-.91 3.69 3.69 0 0 1-.83-2.58 4.25 4.25 0 0 1 .24-1.48 3.1 3.1 0 0 1 .68-1.11 3 3 0 0 1 1-.69 3.63 3.63 0 0 1 1.34-.23 2.9 2.9 0 0 1 2.29.87 3.42 3.42 0 0 1 .76 2.35v.72H75.5a2 2 0 0 0 .41 1.25 1.42 1.42 0 0 0 1.13.44 1.09 1.09 0 0 0 1.24-.88zm-1.63-2a1.59 1.59 0 0 0-.33-1.07 1.35 1.35 0 0 0-1.05-.38 1.52 1.52 0 0 0-.62.12 1.25 1.25 0 0 0-.44.31 1.34 1.34 0 0 0-.29.45 1.75 1.75 0 0 0-.11.57z" fill="#473d38"/></g></g></svg>