<svg xmlns="http://www.w3.org/2000/svg" width="395.023" height="214.091" preserveAspectRatio="xMidYMin"><path d="M56.914 22.27v78.007H32V22.27H0V0h88.781v22.27zM124.9 39.961h44.39v21.233H124.9V78.6h50.87v21.681H99.958V0h75.812v21.676H124.9zm89.943 31.263v29.053H189.9V0h43.946c24.789 0 41.472 13.571 41.472 35.243 0 14.01-7.227 25.068-19.168 31.113l25.8 33.916h-30.108l-21.521-29.048zm18.429-22.415c9.586 0 17.252-5.307 17.252-13.566 0-8.11-7.666-13.272-17.252-13.272h-18.433v26.838zm-18.428 136.234v29.028h-24.938V113.819h43.946c24.774 0 41.443 13.556 41.443 35.238 0 14.01-7.237 25.073-19.173 31.118l25.806 33.916h-30.081l-21.527-29.048zm18.424-22.443c9.586 0 17.257-5.307 17.257-13.566 0-8.115-7.671-13.277-17.257-13.277h-18.424V162.6zm86.117 34.215l-6.659 17.257h-26.519l42.615-100.852h23.741l42.46 100.851h-26.39l-6.788-17.257zm21.232-54.555l-12.967 33.326h25.936z" fill="#473d38" opacity=".05"/></svg>
